<?xml version="1.0" encoding="UTF-8" standalone="no"?>
<!-- Generator: Adobe Illustrator 19.0.0, SVG Export Plug-In . SVG Version: 6.00 Build 0)  -->

<svg
   xmlns:dc="http://purl.org/dc/elements/1.1/"
   xmlns:cc="http://creativecommons.org/ns#"
   xmlns:rdf="http://www.w3.org/1999/02/22-rdf-syntax-ns#"
   xmlns:svg="http://www.w3.org/2000/svg"
   xmlns="http://www.w3.org/2000/svg"
   xmlns:sodipodi="http://sodipodi.sourceforge.net/DTD/sodipodi-0.dtd"
   xmlns:inkscape="http://www.inkscape.org/namespaces/inkscape"
   version="1.1"
   id="Слой_1"
   x="0px"
   y="0px"
   viewBox="0 0 595.28 841.89"
   style="enable-background:new 0 0 595.28 841.89;"
   xml:space="preserve"
   inkscape:version="0.91 r13725"
   sodipodi:docname="luka_galamar_logo_black.svg"><metadata
     id="metadata67"><rdf:RDF><cc:Work
         rdf:about=""><dc:format>image/svg+xml</dc:format><dc:type
           rdf:resource="http://purl.org/dc/dcmitype/StillImage" /><dc:title></dc:title></cc:Work></rdf:RDF></metadata><defs
     id="defs65" /><sodipodi:namedview
     pagecolor="#ffffff"
     bordercolor="#666666"
     borderopacity="1"
     objecttolerance="10"
     gridtolerance="10"
     guidetolerance="10"
     inkscape:pageopacity="0"
     inkscape:pageshadow="2"
     inkscape:window-width="1920"
     inkscape:window-height="1017"
     id="namedview63"
     showgrid="false"
     inkscape:zoom="1.5857387"
     inkscape:cx="266.98305"
     inkscape:cy="413.16229"
     inkscape:window-x="-8"
     inkscape:window-y="-8"
     inkscape:window-maximized="1"
     inkscape:current-layer="Слой_1" /><g
     id="g3"
     transform="matrix(0.53323858,0,0,0.56804146,101.61657,140.93621)"
     style="fill:#000000"><path
       style="clip-rule:evenodd;fill:#000000;fill-rule:evenodd;stroke:#ffffff;stroke-miterlimit:10"
       d="m 359.795,407.688 0,-3.473 29.198,0 0,3.473 c -0.462,0.118 -0.833,0.232 -1.086,0.308 -0.253,0.08 -0.559,0.219 -0.913,0.303 -0.799,0.193 -1.492,0.29 -1.997,0.438 -1.047,0.303 -1.767,0.631 -2.175,0.867 -0.176,1.737 -0.261,3.579 -0.261,5.476 l 0.001,10.69 c -3.184,2.369 -6.655,4.013 -10.385,4.908 -3.734,0.892 -8.193,1.447 -13.34,1.519 -5.787,0.088 -11.07,-0.804 -15.814,-2.561 -4.739,-1.763 -8.755,-4.282 -11.99,-7.52 -3.238,-3.239 -5.695,-6.99 -7.344,-11.251 -1.651,-4.261 -2.527,-8.912 -2.477,-13.951 0.056,-5.437 1.367,-10.489 3.74,-15.114 2.368,-4.632 6.085,-8.379 11.119,-11.212 5.035,-2.832 11.419,-4.399 19.115,-4.517 3.008,-0.047 5.825,0.172 8.432,0.349 0.687,0.042 1.695,0.033 2.999,0.084 1.296,0.055 2.511,0.151 3.605,0.173 1.447,0.025 2.498,-0.06 3.128,-0.173 0.572,-0.102 1.076,-0.227 1.476,-0.303 0.401,-0.084 0.737,-0.092 0.955,-0.13 0.993,-0.181 1.624,-0.379 1.913,-0.438 l 10e-4,17.033 -3.735,0.782 c -1.161,-2.662 -2.486,-4.929 -3.958,-6.779 -1.466,-1.843 -3.251,-3.259 -5.299,-4.214 -2.052,-0.951 -4.647,-1.434 -7.777,-1.434 -4.978,0 -9.55,1.964 -13.685,5.867 -4.138,3.903 -6.187,10.595 -6.128,20.027 0.051,7.991 1.451,14.3 4.171,18.906 2.723,4.605 5.914,7.747 9.56,9.426 3.647,1.677 6.981,2.376 9.993,2.17 4.518,-0.308 7.356,-1.502 8.517,-3.647 l 0.085,-8.689 0.176,-4.168 c -2.381,-1.165 -4.66,-1.784 -6.692,-2.351 l -3.128,-0.874 0,0 z m 77.87,16.344 1.136,2.953 -5.825,3.125 c -1.909,1.027 -3.366,1.602 -4.346,1.654 -2.253,0.113 -3.94,-1.363 -5.038,-4.434 l -0.521,0 c -1.913,1.279 -4.186,2.334 -6.822,3.176 -2.637,0.837 -5.174,1.258 -7.605,1.258 -4.574,-0.001 -7.797,-1.208 -9.643,-3.609 -1.846,-2.398 -2.889,-4.968 -2.957,-7.688 -0.095,-3.878 1.291,-6.662 4.042,-8.34 2.752,-1.682 6.868,-3.188 12.382,-4.26 2.183,-0.425 3.89,-0.66 5.038,-0.96 0.173,-0.037 0.443,-0.134 0.784,-0.21 0.344,-0.088 0.747,-0.198 1.177,-0.311 0.429,-0.11 0.837,-0.168 1.174,-0.256 1.106,-0.308 1.829,-0.677 2.082,-1.043 0.266,-0.379 0.349,-0.959 0.349,-1.652 0,-1.738 -0.068,-3.075 -0.088,-3.996 -0.03,-1.153 -0.077,-2.06 -0.173,-2.695 -0.357,-2.422 -2.028,-3.584 -5.038,-3.562 -3.351,0.029 -5.539,0.769 -6.431,2.343 -0.319,0.559 -0.437,1.06 -0.522,1.391 -0.541,2.036 -1.514,3.542 -2.784,4.522 -1.266,0.98 -2.642,1.534 -4.084,1.476 -2.719,-0.105 -4.289,-1.74 -4.34,-4.689 -0.113,-6.196 7.065,-9.127 21.201,-8.954 3.756,0.046 6.536,0.253 8.298,0.74 1.763,0.488 3.079,1.552 3.911,3.171 0.833,1.619 1.174,4.092 0.997,7.389 l -0.95,17.639 c -0.268,4.97 0.228,7.469 1.388,7.469 0.229,0 0.379,-0.03 0.434,-0.084 0.118,-0.118 0.374,-0.231 0.782,-0.348 0.055,-0.06 0.235,-0.178 0.521,-0.346 0.283,-0.168 0.492,-0.319 0.611,-0.437 -0.001,-0.003 0.287,-0.145 0.86,-0.432 l 0,0 0,0 z m -14.855,-1.741 c -0.113,-6.549 -0.143,-10.805 -0.088,-12.773 -1.564,0.522 -2.738,0.79 -3.479,0.955 -1.859,0.408 -3.305,0.87 -4.344,1.215 -4.34,1.443 -6.624,3.971 -6.691,7.559 -0.032,2.14 0.412,4.033 1.221,5.652 0.807,1.619 2.027,2.431 3.65,2.431 1.447,0 3.205,-0.538 5.256,-1.606 2.053,-1.069 3.545,-2.218 4.475,-3.433 l 0,0 0,0 z m 21.29,8.432 0,-2.439 2.957,-0.694 c 2.136,-0.504 3.36,-0.938 3.646,-1.43 0.291,-0.497 0.45,-1.784 0.433,-3.87 l -0.431,-47.013 c -0.013,-1.85 -0.186,-3.141 -0.565,-3.865 -0.378,-0.727 -1.354,-1.223 -2.91,-1.438 l -3.213,-0.433 0,-2.692 c 2.953,-0.113 6.376,-0.442 10.254,-0.958 3.878,-0.518 5.88,-0.784 5.993,-0.784 l -0.782,57.182 c -0.025,2.015 0.133,3.309 0.395,3.823 0.254,0.517 1.494,0.98 3.693,1.476 l 3.036,0.694 0,2.439 -22.506,0 0,0.002 z m 70.298,-6.691 1.132,2.953 -5.825,3.125 c -1.905,1.027 -3.365,1.602 -4.341,1.654 -2.254,0.113 -3.937,-1.363 -5.039,-4.434 l -0.52,0 c -1.915,1.279 -4.186,2.334 -6.823,3.176 -2.637,0.837 -5.173,1.258 -7.609,1.258 -4.576,-0.001 -7.793,-1.208 -9.644,-3.609 -1.845,-2.398 -2.885,-4.968 -2.953,-7.688 -0.096,-3.878 1.291,-6.662 4.042,-8.34 2.75,-1.682 6.863,-3.188 12.381,-4.26 2.184,-0.425 3.887,-0.66 5.043,-0.96 0.168,-0.037 0.438,-0.134 0.779,-0.21 0.341,-0.088 0.744,-0.198 1.173,-0.311 0.431,-0.11 0.845,-0.168 1.173,-0.256 1.106,-0.308 1.833,-0.677 2.086,-1.043 0.261,-0.379 0.349,-0.959 0.349,-1.652 10e-4,-1.738 -0.067,-3.075 -0.088,-3.996 -0.03,-1.153 -0.08,-2.06 -0.177,-2.695 -0.356,-2.422 -2.028,-3.584 -5.039,-3.562 -3.351,0.029 -5.534,0.769 -6.431,2.343 -0.315,0.559 -0.433,1.06 -0.521,1.391 -0.538,2.036 -1.51,3.542 -2.78,4.522 -1.27,0.98 -2.641,1.534 -4.083,1.476 -2.725,-0.105 -4.294,-1.74 -4.345,-4.689 -0.108,-6.196 7.066,-9.127 21.207,-8.954 3.752,0.046 6.531,0.253 8.293,0.74 1.763,0.488 3.079,1.552 3.916,3.171 0.832,1.619 1.173,4.092 0.997,7.389 l -0.954,17.639 c -0.266,4.97 0.23,7.469 1.386,7.469 0.232,0 0.378,-0.03 0.433,-0.084 0.119,-0.118 0.379,-0.231 0.787,-0.348 0.055,-0.06 0.236,-0.178 0.522,-0.346 0.281,-0.168 0.487,-0.319 0.605,-0.437 0.003,-0.003 0.292,-0.145 0.868,-0.432 l 0,0 0,0 z m -14.858,-1.741 c -0.113,-6.549 -0.143,-10.805 -0.084,-12.773 -1.564,0.522 -2.737,0.79 -3.474,0.955 -1.862,0.408 -3.314,0.87 -4.349,1.215 -4.34,1.443 -6.624,3.971 -6.687,7.559 -0.042,2.14 0.408,4.033 1.216,5.652 0.804,1.619 2.027,2.431 3.651,2.431 1.451,0 3.205,-0.538 5.258,-1.606 2.046,-1.069 3.544,-2.218 4.469,-3.433 l 0,0 0,0 z m 37.107,-28.068 0.527,0 c 2.136,-1.506 4.937,-2.755 8.381,-3.74 3.445,-0.975 6.183,-1.265 8.214,-1.215 4.627,0.113 7.356,1.657 8.163,4.955 5.334,-3.474 10.09,-5.039 14.254,-4.955 3.76,0.08 6.552,0.74 8.344,2.216 1.797,1.481 2.89,3.482 3.26,5.998 0.371,2.514 0.501,5.522 0.303,8.991 -0.088,1.501 -0.189,2.695 -0.218,3.567 -0.03,0.87 -0.223,1.875 -0.303,3.04 -0.203,2.767 -0.257,4.9 -0.349,6.342 -0.126,1.964 -0.223,3.542 -0.173,4.694 0.055,1.216 0.383,2.018 0.779,2.389 0.404,0.37 1.454,0.895 3.221,1.258 l 2.519,0.521 0,2.439 -21.379,0 0,-2.439 c 2.893,-0.576 4.706,-1.489 5.429,-2.733 0.729,-1.25 0.955,-3.81 0.694,-7.692 -0.26,-3.883 -0.386,-6.519 -0.386,-7.906 0,-0.872 0.012,-1.725 0.042,-2.562 0.03,-0.842 -0.035,-1.649 -0.042,-2.393 -0.042,-3.936 -0.429,-6.738 -1.263,-8.387 -0.836,-1.644 -2.684,-2.266 -5.517,-1.955 -3.814,0.429 -6.722,1.825 -8.694,4.261 -0.05,3.533 -0.071,9.823 -0.522,18.854 -0.062,1.346 -0.344,2.88 -0.344,4.605 l 10e-4,1.741 c 0,1.148 0.302,1.998 0.912,2.519 0.611,0.522 2.19,1.073 4.736,1.649 l 0,2.439 -21.378,0 0,-2.7 2.347,-0.26 c 0.06,-0.055 0.42,-0.106 1.042,-0.257 0.527,-0.131 0.846,-0.295 0.955,-0.349 0.228,-0.11 0.412,-0.206 0.526,-0.261 0.114,-0.055 0.274,-0.097 0.434,-0.176 0.412,-0.198 0.685,-0.429 0.777,-0.606 0.303,-0.569 0.437,-0.87 0.437,-0.87 0,-0.232 0.022,-0.426 0.047,-0.564 0.022,-0.139 0.038,-0.361 0.038,-0.648 l 0,-2.696 0,-4.437 0,-4.95 c 0,-4.807 -0.228,-8.369 -0.346,-10.687 -0.217,-4.454 -1.649,-6.691 -4.605,-6.691 -1.74,0 -3.714,0.609 -5.912,1.82 -2.191,1.215 -3.79,2.494 -4.774,3.827 l -0.521,22.156 c -0.055,2.251 0.205,3.6 0.605,4 0.404,0.401 1.544,1.119 3.567,1.389 l 1.909,0.26 0,2.7 -20.944,0 0,-2.439 2.524,-0.521 c 1.998,-0.409 3.175,-1.001 3.604,-1.431 0.429,-0.433 0.433,-1.746 0.391,-3.957 l -0.433,-22.939 c -0.033,-1.972 -0.231,-3.301 -0.695,-4 -0.466,-0.694 -1.4,-1.118 -2.784,-1.303 l -3.301,-0.434 0,-2.695 c 4.925,-0.113 8.92,-0.509 11.995,-1.128 0.337,-0.067 1.153,-0.226 2.431,-0.433 0.8,-0.13 1.451,-0.176 1.913,-0.176 l -0.438,4.955 0,0 z m 104.622,29.809 1.132,2.953 -5.821,3.125 c -1.909,1.027 -3.364,1.602 -4.344,1.654 -2.254,0.113 -3.937,-1.363 -5.04,-4.434 l -0.52,0 c -1.915,1.279 -4.186,2.334 -6.823,3.176 -2.637,0.837 -5.173,1.258 -7.605,1.258 -4.579,-0.001 -7.797,-1.208 -9.647,-3.609 -1.845,-2.398 -2.885,-4.968 -2.953,-7.688 -0.092,-3.878 1.291,-6.662 4.043,-8.34 2.75,-1.682 6.867,-3.188 12.381,-4.26 2.183,-0.425 3.887,-0.66 5.043,-0.96 0.168,-0.037 0.437,-0.134 0.778,-0.21 0.344,-0.088 0.744,-0.198 1.173,-0.311 0.434,-0.11 0.845,-0.168 1.178,-0.256 1.101,-0.308 1.83,-0.677 2.081,-1.043 0.261,-0.379 0.349,-0.959 0.349,-1.652 10e-4,-1.738 -0.068,-3.075 -0.088,-3.996 -0.03,-1.153 -0.076,-2.06 -0.173,-2.695 -0.361,-2.422 -2.031,-3.584 -5.038,-3.562 -3.356,0.029 -5.539,0.769 -6.431,2.343 -0.319,0.559 -0.438,1.06 -0.522,1.391 -0.542,2.036 -1.514,3.542 -2.784,4.522 -1.266,0.98 -2.641,1.534 -4.083,1.476 -2.726,-0.105 -4.295,-1.74 -4.341,-4.689 -0.113,-6.196 7.061,-9.127 21.201,-8.954 3.753,0.046 6.532,0.253 8.294,0.74 1.767,0.488 3.079,1.552 3.916,3.171 0.832,1.619 1.173,4.092 0.997,7.389 l -0.954,17.639 c -0.266,4.97 0.23,7.469 1.391,7.469 0.231,0 0.375,-0.03 0.428,-0.084 0.119,-0.118 0.379,-0.231 0.787,-0.348 0.06,-0.06 0.24,-0.178 0.522,-0.346 0.281,-0.168 0.491,-0.319 0.606,-0.437 0.002,-0.003 0.291,-0.145 0.867,-0.432 l 0,0 0,0 z m -14.855,-1.741 c -0.117,-6.549 -0.146,-10.805 -0.088,-12.773 -1.564,0.522 -2.737,0.79 -3.474,0.955 -1.863,0.408 -3.309,0.87 -4.349,1.215 -4.34,1.443 -6.624,3.971 -6.687,7.559 -0.037,2.14 0.407,4.033 1.216,5.652 0.803,1.619 2.026,2.431 3.65,2.431 1.451,0 3.205,-0.538 5.257,-1.606 2.053,-1.069 3.55,-2.218 4.475,-3.433 l 0,0 0,0 z m 36.498,-33.279 c 1.043,3.006 1.388,6.367 1.043,10.076 l 0.346,0 c 0.87,-0.867 1.479,-1.531 1.829,-2.002 0.173,-0.113 0.333,-0.256 0.476,-0.429 0.143,-0.176 0.303,-0.349 0.474,-0.521 0.174,-0.173 0.266,-0.261 0.266,-0.261 3.996,-4.576 7.409,-6.863 10.253,-6.863 1.506,0 2.73,0.567 3.647,1.69 0.925,1.127 1.325,2.536 1.303,4.215 -0.029,2.254 -0.609,4.378 -1.825,6.346 -1.21,1.965 -2.868,3.008 -4.95,3.036 -1.265,0.017 -2.334,-0.416 -3.171,-1.258 -0.841,-0.84 -1.261,-1.749 -1.261,-2.734 10e-4,-0.117 0.017,-0.215 0.047,-0.26 0.021,-0.055 0.037,-0.148 0.037,-0.266 10e-4,-0.113 0.018,-0.201 0.043,-0.256 0.03,-0.058 0.045,-0.151 0.045,-0.265 10e-4,-0.344 -0.151,-0.484 -0.432,-0.517 -0.638,-0.076 -1.556,0.451 -2.737,1.691 -1.183,1.241 -2.246,2.813 -3.171,4.698 -0.929,1.879 -1.406,3.697 -1.477,5.429 l -0.52,11.813 c -0.081,1.783 0.104,2.961 0.302,3.474 0.198,0.519 0.828,0.968 1.867,1.309 0.341,0.113 0.757,0.243 1.216,0.349 0.517,0.113 0.815,0.202 0.87,0.257 l 5.127,0.521 0,2.439 -24.074,0 0,-2.439 2.436,-0.521 c 2.498,-0.534 4.175,-1.384 4.175,-2.519 l 0,-1.128 c 0,-1.161 0,-1.741 0,-1.741 -0.058,-2.373 -0.138,-5.725 -0.223,-10.036 -0.08,-4.311 -0.298,-8.327 -0.298,-12.033 0,-2.09 -0.068,-3.582 -0.522,-4.474 -0.462,-0.897 -1.518,-1.486 -3.133,-1.699 l -3.301,-0.434 0,-2.695 c 3.188,-0.228 6.867,-0.606 11.036,-1.128 0.399,-0.05 1.157,-0.243 2.258,-0.433 0.86,-0.145 1.536,-0.26 1.999,-0.431 l 0,0 0,0 z"
       id="path5"
       inkscape:connector-curvature="0" /><path
       style="clip-rule:evenodd;fill:#000000;fill-rule:evenodd;stroke:#ffffff;stroke-miterlimit:10"
       d="m -70.042,405.364 c 2.179,0.306 3.672,2.632 3.319,5.198 -0.348,2.566 -2.813,4.328 -4.602,4.105 -1.778,-0.219 -3.667,-2.632 -3.326,-5.19 0.353,-2.566 2.426,-4.408 4.609,-4.113 l 0,0 0,0 z M -89,430.72 l 0.416,-3.391 4.537,-0.871 c 2.604,-0.404 4.344,-1.005 5.228,-1.82 0.883,-0.812 1.383,-2.171 1.505,-4.084 l 0.315,-3.306 c -0.933,-1.148 -1.682,-2.557 -2.128,-4.088 -0.765,0.118 -1.303,0.299 -1.597,0.471 -0.563,0.337 -1.968,-0.097 -2.805,2.267 l -1.181,3.273 -2.557,0.083 2.225,-18.384 2.574,-0.076 0.29,3.341 c 0.202,2.413 1.291,2.472 1.8,2.734 0.228,0.125 0.656,0.264 1.25,0.357 0.652,-2.331 1.952,-4.294 3.621,-5.637 l 2.196,-23.094 c 0.269,-2.145 0.155,-3.679 -0.341,-4.609 -0.492,-0.925 -2.183,-1.619 -5.085,-2.081 l -2.877,-0.615 0.429,-3.473 31.463,0 -0.433,3.473 -3.036,0.615 c -2.83,0.463 -4.64,1.143 -5.422,2.04 -0.772,0.899 -1.299,2.448 -1.577,4.651 l -3.775,24.445 c 1.644,2.153 2.472,5.135 2.035,8.281 -0.416,3.095 -2.238,5.665 -4.442,7.284 l -0.865,5.605 c 2.246,1.043 4.874,1.595 7.873,1.659 3.709,-10e-4 6.83,-0.48 9.349,-1.439 2.524,-0.955 4.71,-2.414 6.582,-4.387 1.867,-1.968 3.802,-4.722 5.804,-8.259 l 4.858,-0.606 -5.913,19.641 -50.316,0 0,0 z m 76.275,-41.452 -0.955,22.51 c -0.113,3.301 -0.113,5.933 0,7.91 0.113,1.965 0.694,3.63 1.732,4.993 1.049,1.363 2.785,2.04 5.216,2.04 2.086,0 4.231,-0.594 6.439,-1.78 2.196,-1.185 3.932,-2.796 5.211,-4.823 l 0,-4.862 c 0.06,-2.784 0.113,-5.792 0.172,-9.043 0.056,-3.243 0.085,-5.674 0.085,-7.301 0.001,-1.674 -0.198,-2.852 -0.606,-3.516 -0.403,-0.669 -1.358,-1.085 -2.868,-1.261 l -3.385,-0.434 0,-2.692 c 4.98,-0.113 9,-0.491 12.078,-1.131 0.228,0 1.01,-0.147 2.343,-0.436 0.753,-0.11 1.421,-0.258 2.002,-0.429 l -1.219,28.321 0,2.784 0,3.045 c 0.114,1.619 0.303,2.705 0.567,3.256 0.257,0.551 0.795,0.795 1.607,0.74 0,0 0.344,-0.088 1.038,-0.261 0.581,-0.231 1.161,-0.576 1.737,-1.048 0.123,-0.05 0.206,-0.097 0.266,-0.125 0.06,-0.03 0.113,-0.077 0.168,-0.126 l 1.657,2.338 c -2.902,2.612 -6.056,3.887 -9.476,3.828 -3.592,-0.118 -5.502,-2.083 -5.733,-5.914 l -0.26,0 c -4.404,3.883 -9.359,5.859 -14.859,5.914 -4.058,-10e-4 -7.285,-1.056 -9.69,-3.171 -2.406,-2.112 -3.487,-6.705 -3.259,-13.775 l 0.349,-15.38 c 0.176,-1.8 0.042,-3.053 -0.391,-3.777 -0.438,-0.727 -1.434,-1.232 -3,-1.526 l -3.3,-0.434 0,-2.692 c 5.151,-0.115 10.601,-0.696 16.334,-1.742 l 0,0 0,0 z m 64.912,0.87 21.033,0 0,2.695 c -2.547,0.173 -4.867,0.837 -6.952,1.998 -2.086,1.161 -4.522,2.928 -7.302,5.299 -1.16,0.925 -1.968,1.682 -2.434,2.259 -0.517,0.293 -1.043,0.694 -1.56,1.215 -0.231,0.231 -0.379,0.442 -0.438,0.61 10e-4,1.396 2.393,5.388 7.171,11.99 4.783,6.607 7.948,9.909 9.514,9.909 0.349,0 1.451,-0.694 3.306,-2.086 l 1.564,2.607 c -1.336,1.216 -2.868,2.359 -4.61,3.427 -1.732,1.077 -3.125,1.645 -4.171,1.7 -1.736,-0.001 -4.399,-1.682 -7.991,-5.043 -3.594,-3.357 -6.863,-7.049 -9.82,-11.074 -2.953,-4.029 -4.404,-6.708 -4.344,-8.041 0.058,-0.988 1.942,-3.213 5.647,-6.691 1.157,-1.039 2.057,-1.884 2.697,-2.519 2.2,-2.081 3.271,-3.335 3.208,-3.739 0.001,-0.985 -1.501,-1.599 -4.516,-1.821 l 0,-2.695 -0.002,0 z m -26.156,40.582 0,-2.436 3.045,-0.694 c 2.145,-0.463 3.343,-0.938 3.604,-1.43 0.261,-0.497 0.391,-1.784 0.391,-3.87 L 32.55,375.277 c 0,-1.972 -0.144,-3.288 -0.434,-3.953 -0.29,-0.669 -1.274,-1.118 -2.957,-1.35 l -3.301,-0.429 0,-2.695 c 2.726,-0.113 5.27,-0.308 7.65,-0.567 2.367,-0.257 4.239,-0.492 5.602,-0.695 1.363,-0.205 2.388,-0.361 3.083,-0.479 l -0.779,57.182 c 0,1.968 0.143,3.23 0.433,3.782 0.291,0.546 1.531,1.055 3.735,1.518 l 3.041,0.694 0,2.436 -22.592,0 0,-10e-4 z m 97.325,-6.692 1.131,2.957 -5.82,3.129 c -1.913,1.039 -3.362,1.594 -4.35,1.649 -2.257,0.113 -3.936,-1.363 -5.038,-4.434 l -0.521,0 c -1.91,1.274 -4.185,2.334 -6.822,3.176 -2.637,0.837 -5.164,1.258 -7.605,1.258 -4.575,-10e-4 -7.788,-1.203 -9.639,-3.609 -1.854,-2.402 -2.848,-4.963 -2.961,-7.688 -0.055,-3.882 1.291,-6.662 4.042,-8.34 2.755,-1.686 6.881,-3.1 12.387,-4.256 2.199,-0.353 3.877,-0.669 5.033,-0.963 0.178,-0.055 0.438,-0.125 0.792,-0.21 0.341,-0.093 0.731,-0.193 1.168,-0.306 0.429,-0.118 0.825,-0.203 1.174,-0.266 1.098,-0.345 1.795,-0.694 2.081,-1.038 0.236,-0.408 0.35,-0.959 0.35,-1.652 0,-1.738 -0.03,-3.071 -0.085,-3.996 0.001,-1.157 -0.063,-2.057 -0.176,-2.695 -0.345,-2.431 -2.027,-3.622 -5.038,-3.562 -3.356,-0.001 -5.502,0.777 -6.431,2.346 -0.286,0.581 -0.463,1.043 -0.526,1.388 -0.576,2.032 -1.502,3.534 -2.777,4.522 -1.278,0.983 -2.637,1.479 -4.088,1.479 -2.719,-0.18 -4.168,-1.744 -4.34,-4.697 0,-6.199 7.065,-9.181 21.197,-8.95 3.772,0 6.536,0.248 8.302,0.74 1.775,0.488 3.07,1.547 3.91,3.171 0.842,1.623 1.174,4.08 1.001,7.389 l -0.955,17.639 c -0.23,4.983 0.228,7.473 1.388,7.473 0.233,0 0.379,-0.033 0.434,-0.083 0.118,-0.118 0.378,-0.236 0.778,-0.353 0.068,-0.06 0.236,-0.173 0.526,-0.346 0.291,-0.176 0.497,-0.319 0.611,-0.437 0.002,-0.002 0.29,-0.149 0.867,-0.435 l 0,0 0,0 z m -14.859,-1.737 c -0.117,-6.549 -0.143,-10.805 -0.088,-12.773 -1.56,0.522 -2.717,0.842 -3.474,0.95 -1.85,0.463 -3.301,0.871 -4.344,1.216 -4.34,1.451 -6.578,3.975 -6.692,7.562 0.001,2.145 0.408,4.028 1.22,5.652 0.808,1.624 2.026,2.431 3.647,2.431 1.447,0 3.2,-0.534 5.256,-1.606 2.061,-1.072 3.55,-2.217 4.475,-3.432 l 0,0 0,0 z"
       id="path7"
       inkscape:connector-curvature="0" /><path
       style="clip-rule:evenodd;fill:#000000;fill-rule:evenodd;stroke:#ffffff;stroke-miterlimit:10"
       d="m 203.842,390.491 17.702,3.058 -3.057,-17.702 c 2.965,0 5.925,0 8.89,0 2.957,0 5.926,0 8.886,0 l -3.053,17.702 17.699,-3.058 c 0,2.966 -0.001,5.931 -0.001,8.891 0.001,2.961 0,5.926 0,8.887 l -17.698,-3.053 3.053,17.698 c -2.96,0 -5.93,0 -8.886,0 -2.964,0 -5.926,0 -8.891,0 l 3.063,-17.698 -17.706,3.053 c 0,-2.96 0,-5.925 0,-8.887 0,-2.96 0,-5.925 0,-8.89 l 0,-0.001 -10e-4,0 z m -20.961,-30.184 c 1.939,-1.334 4.604,-0.855 5.947,1.08 1.337,1.935 0.849,4.602 -1.086,5.939 -1.934,1.35 -4.601,0.849 -5.943,-1.081 -1.331,-1.939 -0.849,-4.602 1.081,-5.938 l 0.001,0 0,0 z m 88.984,-0.004 c -1.934,-1.338 -4.601,-0.85 -5.943,1.085 -1.337,1.935 -0.849,4.605 1.085,5.939 1.935,1.341 4.605,0.849 5.943,-1.086 1.338,-1.93 0.846,-4.601 -1.085,-5.938 l 0,0 0,0 z m -97.741,80.986 106.493,0 3.349,0 0,-8.525 c -0.135,-1.135 -1.321,-2.153 -3.349,-3.061 l 0,-29.803 c -0.209,-9.446 -3.36,-17.294 -8.44,-23.556 l 4.572,-6.615 c 2.935,-4.252 1.863,-10.111 -2.386,-13.042 -4.247,-2.935 -10.101,-1.867 -13.038,2.381 l -3.894,5.636 c -4.143,-2.111 -8.648,-3.739 -13.345,-4.878 0.639,-0.333 1.286,-0.664 1.93,-0.993 1.615,-1.06 2.254,-3.019 0,-4.07 -1.245,-0.64 -2.489,-1.284 -3.73,-1.918 0.484,-1.288 0.967,-2.566 1.459,-3.844 0.607,-1.587 1.224,-3.168 1.863,-4.745 0.88,-2.183 -0.412,-2.363 -1.215,-2.363 -2.983,-10e-4 -5.956,0 -8.934,0 -2.964,-10e-4 -5.942,0 -8.915,0 -3.028,-10e-4 -6.053,0 -9.073,0 -3.028,-10e-4 -6.051,0 -9.076,0 -0.609,-10e-4 -1.808,0.168 -1.055,2.035 0.66,1.636 1.303,3.273 1.935,4.908 0.513,1.333 1.025,2.671 1.518,4.008 -1.235,0.634 -2.477,1.278 -3.714,1.918 -1.418,0.752 -2.439,2.581 0,4.07 0.757,0.391 1.519,0.783 2.276,1.174 -4.273,1.093 -8.379,2.594 -12.172,4.499 l -3.759,-5.442 c -2.935,-4.239 -8.795,-5.311 -13.039,-2.376 -4.248,2.932 -5.316,8.795 -2.385,13.042 l 4.404,6.367 c -5.114,6.304 -8.219,14.241 -8.282,23.804 l 10e-4,29.689 c -2.103,0.942 -3.306,1.997 -3.34,3.174 l 0.001,8.525 3.34,0 0,10e-4 z"
       id="path9"
       inkscape:connector-curvature="0" /><path
       style="clip-rule:evenodd;fill:#000000;fill-rule:evenodd;stroke:#ffffff;stroke-miterlimit:10"
       d="m -63.994,481.021 c 0,-1.043 -0.075,-2.04 -0.231,-3.007 -0.158,-0.972 -0.429,-1.833 -0.812,-2.591 -0.386,-0.742 -0.904,-1.342 -1.547,-1.797 -0.643,-0.446 -1.446,-0.677 -2.406,-0.677 -0.486,0 -0.955,0.068 -1.426,0.215 -0.461,0.147 -0.937,0.37 -1.413,0.677 -0.484,0.311 -0.988,0.715 -1.519,1.219 -0.525,0.504 -1.077,1.12 -1.661,1.859 l 0,8.071 c 1.013,1.245 1.985,2.196 2.907,2.865 0.917,0.659 1.88,0.988 2.885,0.988 0.935,0 1.732,-0.231 2.401,-0.677 0.662,-0.454 1.208,-1.051 1.624,-1.809 0.409,-0.749 0.715,-1.594 0.909,-2.524 0.202,-0.929 0.289,-1.866 0.289,-2.812 l 0,0 0,0 z m 3.925,-0.434 c 0,1.78 -0.189,3.374 -0.577,4.778 -0.378,1.417 -0.945,2.616 -1.682,3.6 -0.749,0.988 -1.674,1.737 -2.767,2.275 -1.093,0.535 -2.351,0.803 -3.764,0.803 -0.602,0 -1.157,-0.063 -1.665,-0.185 -0.513,-0.118 -1.015,-0.311 -1.497,-0.564 -0.491,-0.251 -0.98,-0.576 -1.456,-0.971 -0.483,-0.386 -0.992,-0.841 -1.531,-1.375 l 0,10.148 c 0,0.118 -0.03,0.223 -0.093,0.316 -0.058,0.085 -0.163,0.165 -0.295,0.223 -0.134,0.063 -0.319,0.11 -0.559,0.138 -0.243,0.021 -0.554,0.038 -0.929,0.038 -0.353,0 -0.657,-0.017 -0.9,-0.038 -0.24,-0.03 -0.434,-0.075 -0.572,-0.138 -0.143,-0.06 -0.248,-0.138 -0.291,-0.223 -0.054,-0.093 -0.083,-0.198 -0.083,-0.316 l 0.001,-28.33 c 0,-0.138 0.02,-0.253 0.065,-0.323 0.051,-0.09 0.139,-0.156 0.27,-0.219 0.139,-0.058 0.308,-0.097 0.522,-0.122 0.211,-0.022 0.466,-0.038 0.764,-0.038 0.317,0 0.577,0.017 0.775,0.038 0.206,0.025 0.378,0.063 0.512,0.122 0.136,0.063 0.228,0.131 0.281,0.219 0.056,0.07 0.08,0.185 0.08,0.323 l 10e-4,2.73 c 0.614,-0.64 1.202,-1.186 1.779,-1.645 0.572,-0.471 1.14,-0.854 1.724,-1.165 0.577,-0.306 1.17,-0.543 1.775,-0.702 0.611,-0.16 1.258,-0.235 1.93,-0.235 1.473,-0.001 2.725,0.285 3.764,0.862 1.041,0.567 1.877,1.346 2.529,2.338 0.66,0.993 1.135,2.145 1.434,3.462 0.311,1.316 0.454,2.707 0.454,4.176 l 0,0 10e-4,0 z"
       id="path11"
       inkscape:connector-curvature="0" /><path
       style="clip-rule:evenodd;fill:#000000;fill-rule:evenodd;stroke:#ffffff;stroke-miterlimit:10"
       d="m -35.112,478.926 c 0.045,-1.952 -0.384,-3.496 -1.296,-4.601 -0.908,-1.115 -2.254,-1.67 -4.041,-1.67 -0.92,0 -1.72,0.177 -2.414,0.526 -0.694,0.336 -1.271,0.799 -1.733,1.367 -0.466,0.568 -0.832,1.24 -1.085,1.993 -0.251,0.765 -0.399,1.552 -0.429,2.384 l 10.998,0 0,10e-4 z m 3.743,1.098 c 0,0.588 -0.148,1.01 -0.443,1.258 -0.29,0.248 -0.622,0.37 -1.001,0.37 l -13.299,0 c 0,1.126 0.115,2.136 0.338,3.05 0.223,0.895 0.601,1.666 1.135,2.308 0.522,0.652 1.208,1.149 2.044,1.497 0.845,0.346 1.867,0.514 3.09,0.514 0.963,0 1.817,-0.08 2.57,-0.24 0.745,-0.156 1.401,-0.329 1.947,-0.53 0.544,-0.193 1.001,-0.37 1.354,-0.526 0.354,-0.16 0.614,-0.235 0.799,-0.235 0.103,0 0.198,0.02 0.278,0.075 0.084,0.055 0.148,0.131 0.194,0.24 0.042,0.105 0.08,0.253 0.105,0.437 0.018,0.185 0.03,0.416 0.03,0.686 0,0.198 -0.005,0.371 -0.022,0.509 -0.017,0.147 -0.033,0.27 -0.055,0.383 -0.025,0.118 -0.058,0.215 -0.113,0.311 -0.055,0.085 -0.123,0.177 -0.203,0.253 -0.082,0.083 -0.328,0.223 -0.739,0.408 -0.395,0.185 -0.926,0.371 -1.577,0.556 -0.643,0.177 -1.392,0.336 -2.238,0.483 -0.845,0.138 -1.754,0.215 -2.713,0.215 -1.669,0 -3.133,-0.24 -4.386,-0.697 -1.253,-0.472 -2.309,-1.166 -3.167,-2.083 -0.857,-0.912 -1.506,-2.06 -1.94,-3.444 -0.431,-1.384 -0.66,-2.995 -0.66,-4.82 10e-4,-1.74 0.236,-3.309 0.682,-4.706 0.456,-1.384 1.098,-2.57 1.952,-3.537 0.85,-0.967 1.872,-1.707 3.078,-2.233 1.204,-0.514 2.544,-0.774 4.033,-0.774 1.591,-0.001 2.945,0.251 4.071,0.764 1.111,0.514 2.036,1.208 2.759,2.066 0.725,0.862 1.246,1.875 1.586,3.036 0.337,1.173 0.509,2.409 0.509,3.734 l 0.002,0.672 0,0 z"
       id="path13"
       inkscape:connector-curvature="0" /><path
       style="clip-rule:evenodd;fill:#000000;fill-rule:evenodd;stroke:#ffffff;stroke-miterlimit:10"
       d="m -3.366,491.203 c 0,0.092 -0.031,0.168 -0.085,0.24 -0.046,0.071 -0.148,0.122 -0.295,0.168 -0.135,0.05 -0.329,0.08 -0.56,0.105 -0.23,0.017 -0.534,0.033 -0.89,0.033 -0.416,0 -0.762,-0.017 -1.026,-0.042 -0.257,-0.033 -0.476,-0.08 -0.636,-0.126 -0.168,-0.05 -0.29,-0.122 -0.361,-0.21 -0.075,-0.08 -0.131,-0.176 -0.16,-0.273 l -2.166,-5.257 c -0.268,-0.674 -0.559,-1.261 -0.87,-1.742 -0.306,-0.492 -0.661,-0.887 -1.07,-1.186 -0.403,-0.303 -0.862,-0.513 -1.375,-0.656 -0.509,-0.13 -1.09,-0.198 -1.754,-0.198 l -1.576,0 0,9.126 c 0,0.072 -0.039,0.153 -0.114,0.228 -0.08,0.067 -0.186,0.126 -0.341,0.176 -0.142,0.047 -0.345,0.085 -0.584,0.118 -0.236,0.025 -0.522,0.042 -0.837,0.042 -0.316,0 -0.594,-0.017 -0.829,-0.042 -0.24,-0.033 -0.443,-0.071 -0.589,-0.118 -0.151,-0.05 -0.258,-0.109 -0.328,-0.176 -0.063,-0.075 -0.101,-0.156 -0.101,-0.227 l 0,-20.601 c 0,-0.075 0.038,-0.142 0.101,-0.213 0.072,-0.068 0.177,-0.123 0.328,-0.169 0.147,-0.045 0.348,-0.075 0.589,-0.1 0.236,-0.022 0.513,-0.038 0.829,-0.038 0.316,0 0.601,0.017 0.837,0.038 0.24,0.025 0.441,0.055 0.584,0.1 0.156,0.046 0.261,0.101 0.341,0.169 0.076,0.07 0.113,0.138 0.113,0.215 l 10e-4,8.495 1.576,0 c 0.568,0 1.093,-0.063 1.561,-0.194 0.48,-0.126 0.909,-0.336 1.299,-0.631 0.396,-0.29 0.74,-0.669 1.047,-1.135 0.308,-0.467 0.597,-1.031 0.845,-1.699 l 1.893,-4.657 c 0.033,-0.122 0.088,-0.226 0.151,-0.315 0.08,-0.098 0.193,-0.164 0.345,-0.228 0.151,-0.058 0.353,-0.097 0.597,-0.122 0.248,-0.022 0.576,-0.038 0.984,-0.038 0.354,0 0.657,0.017 0.883,0.038 0.241,0.025 0.417,0.055 0.547,0.1 0.126,0.046 0.21,0.101 0.256,0.169 0.047,0.07 0.068,0.138 0.068,0.215 0,0.13 -0.013,0.277 -0.051,0.425 -0.04,0.155 -0.105,0.323 -0.172,0.526 l -1.94,4.458 c -0.293,0.749 -0.63,1.376 -0.983,1.893 -0.353,0.508 -0.707,0.929 -1.068,1.27 -0.361,0.336 -0.732,0.601 -1.098,0.795 -0.378,0.185 -0.74,0.328 -1.085,0.437 l 0,0.045 c 0.522,0.176 1.005,0.401 1.451,0.652 0.446,0.256 0.853,0.572 1.241,0.947 0.383,0.379 0.736,0.824 1.068,1.338 0.332,0.526 0.639,1.118 0.92,1.795 l 2.234,5.139 c 0.058,0.105 0.105,0.198 0.138,0.291 0.03,0.092 0.05,0.176 0.067,0.26 0.018,0.084 0.025,0.148 0.03,0.198 0.009,0.058 0.017,0.106 0.017,0.148 l 0.003,0 0,10e-4 z"
       id="path15"
       inkscape:connector-curvature="0" /><path
       style="clip-rule:evenodd;fill:#000000;fill-rule:evenodd;stroke:#ffffff;stroke-miterlimit:10"
       d="m 23.954,491.052 c 0,0.117 -0.035,0.223 -0.085,0.303 -0.063,0.08 -0.16,0.151 -0.303,0.21 -0.13,0.063 -0.319,0.11 -0.556,0.143 -0.243,0.025 -0.543,0.042 -0.904,0.042 -0.374,0 -0.682,-0.017 -0.922,-0.042 -0.243,-0.033 -0.433,-0.08 -0.581,-0.143 -0.137,-0.058 -0.243,-0.13 -0.298,-0.21 -0.063,-0.08 -0.088,-0.186 -0.088,-0.303 l 0,-17.719 -5.597,0 c -0.235,2.398 -0.522,4.522 -0.863,6.38 -0.336,1.859 -0.724,3.482 -1.135,4.867 -0.424,1.386 -0.9,2.548 -1.426,3.494 -0.521,0.947 -1.098,1.707 -1.72,2.284 -0.626,0.584 -1.304,1 -2.036,1.253 -0.719,0.256 -1.505,0.386 -2.325,0.386 -0.138,0 -0.257,-0.025 -0.346,-0.071 -0.104,-0.042 -0.18,-0.13 -0.24,-0.243 -0.067,-0.126 -0.108,-0.295 -0.138,-0.509 -0.033,-0.215 -0.047,-0.501 -0.047,-0.85 0,-0.361 0.013,-0.651 0.038,-0.874 0.026,-0.228 0.063,-0.404 0.113,-0.543 0.048,-0.136 0.118,-0.224 0.201,-0.269 0.085,-0.051 0.186,-0.072 0.299,-0.072 0.504,0 0.972,-0.115 1.421,-0.349 0.459,-0.228 0.872,-0.614 1.266,-1.145 0.391,-0.537 0.762,-1.231 1.106,-2.098 0.344,-0.862 0.66,-1.922 0.942,-3.183 0.291,-1.266 0.556,-2.739 0.812,-4.434 0.253,-1.695 0.501,-3.634 0.724,-5.82 0.03,-0.459 0.138,-0.787 0.323,-1.013 0.194,-0.211 0.451,-0.321 0.8,-0.321 l 10.417,0 c 0.363,0 0.636,0.11 0.845,0.321 0.198,0.227 0.299,0.554 0.299,1.013 l 0,19.515 0.004,0 z"
       id="path17"
       inkscape:connector-curvature="0" /><path
       style="clip-rule:evenodd;fill:#000000;fill-rule:evenodd;stroke:#ffffff;stroke-miterlimit:10"
       d="m 48.245,481.811 -3.18,0 c -1.022,0 -1.905,0.088 -2.662,0.257 -0.744,0.176 -1.367,0.429 -1.867,0.765 -0.497,0.341 -0.863,0.749 -1.094,1.216 -0.23,0.479 -0.345,1.013 -0.345,1.632 0,1.055 0.328,1.892 0.997,2.519 0.669,0.619 1.611,0.933 2.81,0.933 0.977,0 1.875,-0.244 2.717,-0.749 0.829,-0.488 1.707,-1.25 2.624,-2.276 l 0,-4.297 0,0 z m 3.698,9.261 c 0,0.176 -0.06,0.316 -0.182,0.404 -0.117,0.088 -0.286,0.16 -0.496,0.206 -0.213,0.042 -0.521,0.067 -0.922,0.067 -0.39,0 -0.706,-0.025 -0.937,-0.067 -0.231,-0.046 -0.404,-0.118 -0.509,-0.206 -0.11,-0.088 -0.152,-0.227 -0.152,-0.404 l 0,-2.027 c -0.895,0.942 -1.88,1.682 -2.97,2.204 -1.084,0.526 -2.241,0.794 -3.457,0.794 -1.068,0 -2.04,-0.143 -2.902,-0.424 -0.857,-0.274 -1.597,-0.677 -2.203,-1.198 -0.609,-0.53 -1.086,-1.174 -1.426,-1.939 -0.328,-0.769 -0.497,-1.64 -0.497,-2.616 10e-4,-1.148 0.228,-2.133 0.69,-2.978 0.472,-0.837 1.135,-1.534 2.007,-2.09 0.87,-0.564 1.938,-0.98 3.2,-1.253 1.266,-0.278 2.688,-0.421 4.266,-0.421 l 2.792,0 0,-1.577 c 0,-0.782 -0.088,-1.472 -0.248,-2.073 -0.168,-0.597 -0.434,-1.102 -0.799,-1.494 -0.371,-0.399 -0.85,-0.698 -1.431,-0.909 -0.584,-0.197 -1.312,-0.298 -2.161,-0.298 -0.925,0 -1.742,0.105 -2.472,0.324 -0.732,0.218 -1.367,0.458 -1.915,0.722 -0.554,0.261 -1.009,0.501 -1.375,0.72 -0.37,0.218 -0.639,0.328 -0.825,0.328 -0.117,0 -0.223,-0.033 -0.319,-0.088 -0.087,-0.063 -0.168,-0.151 -0.235,-0.274 -0.063,-0.117 -0.118,-0.273 -0.143,-0.466 -0.033,-0.186 -0.051,-0.387 -0.051,-0.61 10e-4,-0.378 0.035,-0.677 0.085,-0.895 0.055,-0.215 0.177,-0.424 0.387,-0.622 0.203,-0.19 0.546,-0.426 1.043,-0.685 0.492,-0.261 1.064,-0.501 1.711,-0.719 0.649,-0.219 1.354,-0.396 2.12,-0.539 0.766,-0.151 1.544,-0.218 2.326,-0.218 1.456,-10e-4 2.692,0.168 3.714,0.499 1.027,0.328 1.847,0.812 2.481,1.456 0.627,0.639 1.094,1.43 1.376,2.376 0.283,0.947 0.429,2.045 0.429,3.306 l 0,13.684 0,0 z"
       id="path19"
       inkscape:connector-curvature="0" /><path
       style="clip-rule:evenodd;fill:#000000;fill-rule:evenodd;stroke:#ffffff;stroke-miterlimit:10"
       d="m 90.168,490.841 c 0.017,0.333 -0.08,0.572 -0.311,0.698 -0.227,0.143 -0.686,0.21 -1.371,0.21 -0.374,0 -0.685,-0.009 -0.925,-0.025 -0.24,-0.008 -0.425,-0.042 -0.569,-0.088 -0.13,-0.047 -0.218,-0.105 -0.273,-0.193 -0.058,-0.085 -0.093,-0.193 -0.11,-0.324 l -1.463,-11.84 c -0.045,-0.411 -0.088,-0.87 -0.135,-1.345 -0.042,-0.484 -0.088,-0.968 -0.131,-1.469 -0.045,-0.496 -0.088,-0.992 -0.125,-1.484 -0.038,-0.501 -0.076,-0.964 -0.123,-1.401 l -0.024,-0.517 c -0.139,0.437 -0.274,0.896 -0.43,1.379 -0.145,0.476 -0.311,0.971 -0.488,1.464 -0.168,0.488 -0.336,0.988 -0.488,1.481 -0.164,0.501 -0.308,0.963 -0.437,1.401 l -4.264,12.015 c -0.062,0.181 -0.131,0.324 -0.215,0.447 -0.084,0.122 -0.193,0.218 -0.341,0.29 -0.142,0.08 -0.323,0.135 -0.538,0.168 -0.223,0.025 -0.484,0.042 -0.795,0.042 -0.319,0 -0.581,-0.017 -0.799,-0.042 -0.206,-0.033 -0.383,-0.088 -0.53,-0.151 -0.135,-0.068 -0.248,-0.16 -0.345,-0.281 -0.093,-0.123 -0.168,-0.27 -0.223,-0.454 l -4.11,-12.033 c -0.143,-0.421 -0.298,-0.872 -0.458,-1.354 -0.156,-0.476 -0.319,-0.968 -0.471,-1.477 -0.163,-0.499 -0.316,-1 -0.463,-1.493 -0.151,-0.496 -0.278,-0.963 -0.384,-1.401 l -0.025,0.517 c -0.045,0.437 -0.088,0.9 -0.138,1.401 -0.038,0.492 -0.088,0.988 -0.143,1.484 -0.046,0.501 -0.101,0.985 -0.156,1.469 -0.054,0.475 -0.092,0.933 -0.126,1.345 l -1.399,11.633 c -0.009,0.185 -0.042,0.328 -0.097,0.442 -0.055,0.113 -0.151,0.193 -0.308,0.251 -0.142,0.047 -0.344,0.085 -0.584,0.11 -0.24,0.017 -0.556,0.033 -0.946,0.033 -0.374,0 -0.672,-0.017 -0.892,-0.042 -0.215,-0.033 -0.378,-0.088 -0.496,-0.168 -0.113,-0.071 -0.185,-0.168 -0.21,-0.273 -0.03,-0.114 -0.03,-0.253 0,-0.425 l 2.229,-19.199 c 0.075,-0.476 0.243,-0.845 0.508,-1.093 0.261,-0.245 0.66,-0.371 1.181,-0.371 l 1.78,0 c 0.442,0 0.807,0.035 1.115,0.101 0.308,0.067 0.576,0.185 0.79,0.349 0.219,0.168 0.403,0.391 0.554,0.669 0.149,0.273 0.291,0.622 0.426,1.047 l 3.003,8.63 c 0.168,0.531 0.336,1.056 0.512,1.59 0.185,0.534 0.353,1.055 0.509,1.581 0.16,0.514 0.306,1.022 0.45,1.519 0.139,0.491 0.278,0.967 0.396,1.416 l 0.046,0 c 0.138,-0.458 0.278,-0.954 0.411,-1.479 0.149,-0.514 0.303,-1.043 0.467,-1.574 0.168,-0.534 0.336,-1.064 0.504,-1.586 0.177,-0.534 0.344,-1.03 0.509,-1.514 l 2.999,-8.584 c 0.113,-0.383 0.252,-0.702 0.391,-0.98 0.148,-0.278 0.323,-0.504 0.529,-0.677 0.211,-0.177 0.463,-0.298 0.757,-0.383 0.291,-0.083 0.652,-0.126 1.068,-0.126 l 1.762,0 c 0.54,0 0.947,0.118 1.225,0.336 0.281,0.228 0.441,0.589 0.484,1.081 l 2.254,19.247 0,0 z"
       id="path21"
       inkscape:connector-curvature="0" /><path
       style="clip-rule:evenodd;fill:#000000;fill-rule:evenodd;stroke:#ffffff;stroke-miterlimit:10"
       d="m 119.378,491.052 c 0,0.117 -0.03,0.223 -0.093,0.303 -0.06,0.08 -0.156,0.151 -0.291,0.21 -0.137,0.063 -0.323,0.11 -0.563,0.143 -0.248,0.025 -0.547,0.042 -0.9,0.042 -0.378,0 -0.687,-0.017 -0.93,-0.042 -0.24,-0.033 -0.424,-0.08 -0.564,-0.143 -0.13,-0.058 -0.231,-0.13 -0.295,-0.21 -0.057,-0.08 -0.088,-0.186 -0.088,-0.303 l 0.001,-8.904 -10.342,0 0,8.904 c 0,0.117 -0.03,0.223 -0.093,0.303 -0.058,0.08 -0.16,0.151 -0.291,0.21 -0.137,0.063 -0.323,0.11 -0.563,0.143 -0.244,0.025 -0.556,0.042 -0.93,0.042 -0.353,0 -0.656,-0.017 -0.9,-0.042 -0.24,-0.033 -0.433,-0.08 -0.567,-0.143 -0.147,-0.058 -0.248,-0.13 -0.295,-0.21 -0.054,-0.08 -0.084,-0.186 -0.084,-0.303 l 10e-4,-20.285 c 0,-0.122 0.029,-0.226 0.083,-0.306 0.047,-0.08 0.147,-0.156 0.295,-0.228 0.135,-0.067 0.328,-0.105 0.567,-0.13 0.244,-0.022 0.547,-0.038 0.9,-0.038 0.374,0 0.686,0.017 0.93,0.038 0.24,0.025 0.424,0.063 0.563,0.13 0.131,0.071 0.231,0.148 0.291,0.228 0.063,0.08 0.093,0.185 0.093,0.306 l 0,8.244 10.342,0 0,-8.244 c 0,-0.122 0.029,-0.226 0.087,-0.306 0.064,-0.08 0.165,-0.156 0.295,-0.228 0.139,-0.067 0.324,-0.105 0.564,-0.13 0.245,-0.022 0.551,-0.038 0.93,-0.038 0.353,0 0.651,0.017 0.9,0.038 0.24,0.025 0.424,0.063 0.563,0.13 0.136,0.071 0.231,0.148 0.291,0.228 0.063,0.08 0.092,0.185 0.092,0.306 l 0.001,20.285 0,0 z"
       id="path23"
       inkscape:connector-curvature="0" /><path
       style="clip-rule:evenodd;fill:#000000;fill-rule:evenodd;stroke:#ffffff;stroke-miterlimit:10"
       d="m 147.022,480.928 c 0,-1.093 -0.106,-2.132 -0.308,-3.108 -0.202,-0.98 -0.539,-1.834 -1.005,-2.574 -0.467,-0.731 -1.093,-1.311 -1.888,-1.745 -0.799,-0.429 -1.797,-0.644 -2.978,-0.644 -1.102,0 -2.04,0.203 -2.835,0.594 -0.782,0.386 -1.434,0.938 -1.942,1.653 -0.518,0.715 -0.892,1.56 -1.136,2.54 -0.252,0.975 -0.37,2.036 -0.37,3.201 0,1.106 0.097,2.153 0.298,3.128 0.199,0.977 0.539,1.83 1.018,2.554 0.467,0.732 1.106,1.312 1.897,1.737 0.799,0.433 1.792,0.644 2.977,0.644 1.086,-0.001 2.023,-0.194 2.818,-0.585 0.795,-0.396 1.451,-0.942 1.96,-1.649 0.514,-0.702 0.892,-1.548 1.131,-2.519 0.24,-0.98 0.361,-2.053 0.361,-3.226 l 0.002,0 0,-10e-4 z m 3.915,-0.248 c 0,1.652 -0.215,3.176 -0.657,4.559 -0.428,1.392 -1.085,2.599 -1.947,3.605 -0.861,1.005 -1.943,1.792 -3.243,2.351 -1.303,0.563 -2.809,0.849 -4.517,0.849 -1.669,0 -3.12,-0.256 -4.361,-0.749 -1.236,-0.492 -2.276,-1.211 -3.105,-2.161 -0.819,-0.942 -1.433,-2.098 -1.842,-3.453 -0.408,-1.342 -0.609,-2.885 -0.609,-4.593 0.001,-1.653 0.215,-3.175 0.639,-4.563 0.43,-1.392 1.076,-2.591 1.938,-3.595 0.863,-1.01 1.943,-1.788 3.239,-2.343 1.296,-0.56 2.8,-0.837 4.521,-0.837 1.674,-10e-4 3.125,0.243 4.361,0.747 1.241,0.492 2.279,1.216 3.104,2.158 0.83,0.951 1.443,2.103 1.859,3.449 0.423,1.354 0.62,2.877 0.62,4.576 l 0,0 z"
       id="path25"
       inkscape:connector-curvature="0" /><path
       style="clip-rule:evenodd;fill:#000000;fill-rule:evenodd;stroke:#ffffff;stroke-miterlimit:10"
       d="m 171.348,480.225 c 0,0.597 -0.071,0.993 -0.206,1.224 -0.13,0.222 -0.331,0.341 -0.584,0.341 l -9.417,-0.001 c -0.278,0 -0.479,-0.117 -0.605,-0.357 -0.138,-0.231 -0.21,-0.627 -0.21,-1.208 0,-0.568 0.072,-0.959 0.21,-1.19 0.128,-0.228 0.328,-0.336 0.605,-0.336 l 9.417,0 c 0.122,0 0.227,0.02 0.333,0.062 0.088,0.047 0.176,0.135 0.243,0.266 0.073,0.122 0.126,0.281 0.151,0.484 0.042,0.193 0.063,0.434 0.063,0.715 l 0,0 0,0 z"
       id="path27"
       inkscape:connector-curvature="0" /><path
       style="clip-rule:evenodd;fill:#000000;fill-rule:evenodd;stroke:#ffffff;stroke-miterlimit:10"
       d="m 195.002,485.281 c 0,-0.597 -0.101,-1.128 -0.316,-1.594 -0.211,-0.45 -0.547,-0.837 -1.001,-1.136 -0.461,-0.299 -1.043,-0.521 -1.759,-0.677 -0.717,-0.148 -1.556,-0.223 -2.536,-0.223 l -3.629,0 0,7.192 c 0.283,0.045 0.589,0.075 0.892,0.097 0.308,0.025 0.622,0.05 0.945,0.071 0.326,0.025 0.649,0.042 0.972,0.055 0.324,0.017 0.614,0.02 0.884,0.02 0.976,0 1.813,-0.083 2.507,-0.261 0.694,-0.168 1.261,-0.424 1.724,-0.752 0.454,-0.332 0.79,-0.732 1.001,-1.208 0.215,-0.471 0.315,-1 0.315,-1.585 l 0.001,0 0,0.001 z m -0.677,-9.493 c 0,-0.491 -0.089,-0.937 -0.269,-1.333 -0.177,-0.383 -0.48,-0.715 -0.892,-0.98 -0.408,-0.281 -0.951,-0.479 -1.602,-0.619 -0.656,-0.13 -1.447,-0.202 -2.377,-0.202 -0.701,0 -1.346,0.025 -1.938,0.055 -0.584,0.042 -1.077,0.084 -1.484,0.13 l 0,6.309 3.785,0 c 1.544,0 2.733,-0.29 3.554,-0.87 0.812,-0.577 1.223,-1.409 1.223,-2.491 l 0,0 0,0.001 z m 4.483,9.426 c 0,1.068 -0.199,2.015 -0.607,2.852 -0.412,0.832 -1.01,1.531 -1.8,2.09 -0.799,0.564 -1.796,0.997 -2.978,1.288 -1.185,0.29 -2.569,0.441 -4.146,0.441 -0.491,0 -0.98,0 -1.439,-0.009 -0.466,-0.008 -0.925,-0.025 -1.353,-0.046 -0.441,-0.025 -0.867,-0.054 -1.301,-0.08 -0.42,-0.033 -0.853,-0.067 -1.27,-0.113 -0.596,-0.08 -1.047,-0.278 -1.329,-0.601 -0.285,-0.324 -0.433,-0.8 -0.433,-1.426 l 0.001,-17.466 c 0,-0.614 0.137,-1.093 0.415,-1.426 0.283,-0.328 0.707,-0.522 1.279,-0.581 0.391,-0.046 0.803,-0.088 1.253,-0.118 0.438,-0.033 0.892,-0.05 1.358,-0.075 0.464,-0.025 0.947,-0.038 1.443,-0.055 0.501,-0.017 0.997,-0.025 1.514,-0.025 1.456,0 2.717,0.118 3.782,0.361 1.064,0.24 1.955,0.597 2.654,1.056 0.71,0.466 1.232,1.038 1.572,1.716 0.337,0.672 0.505,1.456 0.505,2.321 0,1.144 -0.308,2.116 -0.913,2.932 -0.609,0.812 -1.501,1.384 -2.692,1.729 1.489,0.319 2.608,0.925 3.361,1.833 0.749,0.9 1.123,2.032 1.123,3.403 l 0.001,0 0,-10e-4 z"
       id="path29"
       inkscape:connector-curvature="0" /><path
       style="clip-rule:evenodd;fill:#000000;fill-rule:evenodd;stroke:#ffffff;stroke-miterlimit:10"
       d="m 228.122,491.072 c 0,0.101 -0.035,0.203 -0.093,0.291 -0.063,0.088 -0.151,0.168 -0.294,0.218 -0.13,0.046 -0.324,0.093 -0.559,0.126 -0.24,0.025 -0.539,0.042 -0.9,0.042 -0.361,0 -0.665,-0.017 -0.9,-0.042 -0.248,-0.033 -0.442,-0.08 -0.594,-0.126 -0.147,-0.05 -0.252,-0.13 -0.315,-0.218 -0.054,-0.088 -0.088,-0.19 -0.088,-0.291 l 0.001,-11.675 c 0,-0.589 0.016,-1.186 0.041,-1.795 0.03,-0.606 0.072,-1.208 0.118,-1.792 -0.349,0.601 -0.724,1.19 -1.14,1.77 -0.421,0.576 -0.833,1.157 -1.25,1.72 l -8.617,11.772 c -0.096,0.118 -0.189,0.223 -0.274,0.316 -0.087,0.088 -0.193,0.16 -0.315,0.218 -0.135,0.047 -0.294,0.085 -0.484,0.11 -0.202,0.017 -0.441,0.033 -0.724,0.033 -0.328,0 -0.601,-0.017 -0.807,-0.042 -0.218,-0.033 -0.387,-0.08 -0.509,-0.126 -0.13,-0.05 -0.223,-0.13 -0.269,-0.218 -0.054,-0.088 -0.084,-0.19 -0.084,-0.291 l 0,-20.33 c 0,-0.11 0.029,-0.202 0.084,-0.29 0.046,-0.098 0.148,-0.164 0.291,-0.228 0.139,-0.058 0.331,-0.097 0.572,-0.122 0.243,-0.022 0.537,-0.038 0.882,-0.038 0.72,0 1.216,0.063 1.485,0.168 0.274,0.113 0.408,0.282 0.408,0.509 l 10e-4,11.738 c 0,0.592 -0.018,1.173 -0.048,1.754 -0.028,0.581 -0.067,1.148 -0.113,1.724 0.344,-0.576 0.689,-1.13 1.043,-1.686 0.358,-0.547 0.74,-1.085 1.14,-1.607 l 8.728,-11.923 c 0.087,-0.122 0.184,-0.228 0.28,-0.316 0.093,-0.092 0.215,-0.16 0.363,-0.213 0.139,-0.055 0.306,-0.085 0.508,-0.11 0.194,-0.022 0.442,-0.038 0.762,-0.038 0.316,0 0.584,0.017 0.799,0.038 0.215,0.025 0.396,0.063 0.522,0.122 0.123,0.063 0.218,0.131 0.273,0.228 0.051,0.088 0.076,0.193 0.076,0.315 l 0,20.305 0,0 z"
       id="path31"
       inkscape:connector-curvature="0" /><path
       style="clip-rule:evenodd;fill:#000000;fill-rule:evenodd;stroke:#ffffff;stroke-miterlimit:10"
       d="m 255.556,481.021 c 0,-1.043 -0.076,-2.04 -0.232,-3.007 -0.16,-0.972 -0.429,-1.833 -0.812,-2.591 -0.386,-0.742 -0.9,-1.342 -1.547,-1.797 -0.647,-0.446 -1.446,-0.677 -2.409,-0.677 -0.484,0 -0.951,0.068 -1.422,0.215 -0.463,0.147 -0.937,0.37 -1.418,0.677 -0.483,0.311 -0.984,0.715 -1.514,1.219 -0.521,0.504 -1.077,1.12 -1.666,1.859 l 0.001,8.071 c 1.022,1.245 1.989,2.196 2.91,2.865 0.917,0.659 1.879,0.988 2.885,0.988 0.934,0 1.732,-0.231 2.401,-0.677 0.66,-0.454 1.208,-1.051 1.619,-1.809 0.412,-0.749 0.72,-1.594 0.909,-2.524 0.203,-0.93 0.294,-1.867 0.294,-2.814 l 0.001,0 0,0.002 z m 3.924,-0.434 c 0,1.78 -0.194,3.374 -0.58,4.778 -0.37,1.417 -0.942,2.616 -1.682,3.6 -0.749,0.988 -1.666,1.737 -2.76,2.275 -1.102,0.535 -2.354,0.803 -3.772,0.803 -0.596,0 -1.153,-0.063 -1.661,-0.185 -0.514,-0.118 -1.015,-0.311 -1.502,-0.564 -0.491,-0.251 -0.975,-0.576 -1.451,-0.971 -0.486,-0.386 -0.992,-0.841 -1.536,-1.375 l 0.001,10.148 c 0,0.118 -0.026,0.223 -0.089,0.316 -0.062,0.085 -0.16,0.165 -0.29,0.223 -0.143,0.063 -0.328,0.11 -0.564,0.138 -0.248,0.021 -0.555,0.038 -0.929,0.038 -0.357,0 -0.657,-0.017 -0.905,-0.038 -0.235,-0.03 -0.429,-0.075 -0.564,-0.138 -0.15,-0.06 -0.248,-0.138 -0.295,-0.223 -0.054,-0.093 -0.083,-0.198 -0.083,-0.316 l 0,-28.33 c 0,-0.138 0.025,-0.253 0.067,-0.323 0.046,-0.09 0.139,-0.156 0.27,-0.219 0.139,-0.058 0.308,-0.097 0.526,-0.122 0.206,-0.022 0.459,-0.038 0.757,-0.038 0.319,0 0.576,0.017 0.778,0.038 0.211,0.025 0.378,0.063 0.508,0.122 0.139,0.063 0.232,0.131 0.283,0.219 0.056,0.07 0.08,0.185 0.08,0.323 l 0.001,2.73 c 0.617,-0.64 1.205,-1.186 1.782,-1.645 0.572,-0.471 1.14,-0.854 1.724,-1.165 0.582,-0.306 1.17,-0.543 1.779,-0.702 0.607,-0.16 1.254,-0.235 1.931,-0.235 1.468,-0.001 2.721,0.285 3.759,0.862 1.039,0.567 1.88,1.346 2.532,2.338 0.652,0.993 1.128,2.145 1.431,3.462 0.308,1.316 0.454,2.707 0.454,4.176 l 0,0 0,0 z"
       id="path33"
       inkscape:connector-curvature="0" /><path
       style="clip-rule:evenodd;fill:#000000;fill-rule:evenodd;stroke:#ffffff;stroke-miterlimit:10"
       d="m 285.816,480.928 c 0,-1.093 -0.106,-2.132 -0.308,-3.108 -0.201,-0.98 -0.539,-1.834 -1.001,-2.574 -0.47,-0.731 -1.097,-1.311 -1.892,-1.745 -0.799,-0.429 -1.795,-0.644 -2.978,-0.644 -1.102,0 -2.04,0.203 -2.834,0.594 -0.782,0.386 -1.434,0.938 -1.943,1.653 -0.518,0.715 -0.892,1.56 -1.136,2.54 -0.248,0.975 -0.37,2.036 -0.37,3.201 0,1.106 0.096,2.153 0.298,3.128 0.199,0.977 0.539,1.83 1.018,2.554 0.467,0.732 1.106,1.312 1.897,1.737 0.804,0.433 1.792,0.644 2.978,0.644 1.085,-0.001 2.023,-0.194 2.817,-0.585 0.8,-0.396 1.451,-0.942 1.96,-1.649 0.514,-0.702 0.892,-1.548 1.131,-2.519 0.242,-0.981 0.363,-2.054 0.363,-3.227 l 0,0 0,0 z m 3.915,-0.248 c 0,1.652 -0.215,3.176 -0.656,4.559 -0.429,1.392 -1.086,2.599 -1.948,3.605 -0.861,1.005 -1.943,1.792 -3.243,2.351 -1.303,0.563 -2.809,0.849 -4.517,0.849 -1.668,0 -3.12,-0.256 -4.361,-0.749 -1.235,-0.492 -2.275,-1.211 -3.103,-2.161 -0.82,-0.942 -1.439,-2.098 -1.842,-3.453 -0.408,-1.342 -0.611,-2.885 -0.611,-4.593 0,-1.653 0.215,-3.175 0.639,-4.563 0.429,-1.392 1.077,-2.591 1.94,-3.595 0.862,-1.01 1.942,-1.788 3.238,-2.343 1.296,-0.56 2.8,-0.837 4.521,-0.837 1.675,-10e-4 3.125,0.243 4.361,0.747 1.242,0.492 2.281,1.216 3.105,2.158 0.83,0.951 1.443,2.103 1.858,3.449 0.418,1.354 0.619,2.877 0.619,4.576 l 0,0 0,0 z"
       id="path35"
       inkscape:connector-curvature="0" /><path
       style="clip-rule:evenodd;fill:#000000;fill-rule:evenodd;stroke:#ffffff;stroke-miterlimit:10"
       d="m 316.064,480.903 c 0,-0.993 -0.089,-1.939 -0.274,-2.839 -0.193,-0.897 -0.492,-1.691 -0.909,-2.376 -0.406,-0.686 -0.967,-1.233 -1.661,-1.649 -0.697,-0.404 -1.565,-0.61 -2.587,-0.61 -0.631,0 -1.216,0.071 -1.771,0.231 -0.547,0.16 -1.081,0.396 -1.602,0.72 -0.529,0.327 -1.056,0.723 -1.577,1.202 -0.534,0.467 -1.093,1.031 -1.695,1.675 -0.017,0.24 -0.025,0.516 -0.025,0.832 0,0.311 0,0.639 0,0.972 0,1.619 0.105,3.049 0.311,4.281 0.198,1.233 0.53,2.259 1.001,3.088 0.466,0.829 1.085,1.451 1.842,1.867 0.77,0.424 1.712,0.631 2.814,0.631 0.985,0 1.858,-0.193 2.616,-0.567 0.774,-0.388 1.409,-0.925 1.935,-1.615 0.513,-0.694 0.909,-1.531 1.186,-2.527 0.269,-0.988 0.395,-2.09 0.395,-3.314 l 0.001,0 0,-0.002 z m 3.857,-0.316 c 0,1.7 -0.228,3.248 -0.704,4.648 -0.458,1.396 -1.135,2.603 -2.018,3.617 -0.887,1.013 -1.973,1.8 -3.243,2.351 -1.266,0.563 -2.695,0.84 -4.289,0.84 -1.657,0 -3.088,-0.268 -4.294,-0.803 -1.206,-0.538 -2.208,-1.337 -3.003,-2.414 -0.782,-1.068 -1.367,-2.413 -1.745,-4.028 -0.37,-1.615 -0.559,-3.516 -0.559,-5.695 0,-1.847 0.083,-3.546 0.26,-5.106 0.174,-1.556 0.417,-2.947 0.732,-4.188 0.316,-1.241 0.694,-2.296 1.128,-3.167 0.437,-0.867 0.878,-1.565 1.341,-2.078 0.456,-0.509 0.909,-0.913 1.354,-1.225 0.442,-0.308 0.93,-0.589 1.481,-0.862 0.539,-0.257 1.143,-0.492 1.825,-0.682 0.687,-0.193 1.454,-0.37 2.318,-0.516 l 7.234,-1.199 c 0.251,-0.038 0.466,-0.063 0.626,-0.055 0.169,0.005 0.294,0.072 0.387,0.177 0.093,0.118 0.147,0.304 0.176,0.556 0.033,0.256 0.045,0.605 0.045,1.06 10e-4,0.299 -0.012,0.556 -0.045,0.77 -0.03,0.21 -0.08,0.378 -0.151,0.517 -0.08,0.138 -0.194,0.235 -0.341,0.315 -0.15,0.076 -0.344,0.139 -0.584,0.177 l -6.737,1.131 c -0.682,0.105 -1.271,0.219 -1.785,0.358 -0.508,0.135 -0.962,0.286 -1.366,0.45 -0.396,0.168 -0.745,0.353 -1.043,0.551 -0.302,0.201 -0.601,0.462 -0.9,0.777 -0.302,0.316 -0.576,0.707 -0.824,1.178 -0.251,0.463 -0.463,0.993 -0.632,1.586 -0.176,0.594 -0.311,1.236 -0.433,1.935 -0.113,0.702 -0.218,1.446 -0.32,2.25 0.492,-0.53 1.013,-1.009 1.577,-1.429 0.551,-0.434 1.139,-0.804 1.754,-1.102 0.614,-0.299 1.27,-0.526 1.955,-0.685 0.674,-0.153 1.405,-0.24 2.166,-0.24 1.464,-0.001 2.733,0.248 3.827,0.739 1.086,0.484 1.99,1.178 2.697,2.086 0.715,0.9 1.253,1.977 1.602,3.239 0.354,1.261 0.529,2.654 0.529,4.168 l 0.002,-0.002 0,0 z"
       id="path37"
       inkscape:connector-curvature="0" /><path
       style="clip-rule:evenodd;fill:#000000;fill-rule:evenodd;stroke:#ffffff;stroke-miterlimit:10"
       d="m 349.184,491.052 c 0,0.117 -0.03,0.223 -0.088,0.303 -0.063,0.08 -0.156,0.151 -0.295,0.21 -0.138,0.063 -0.324,0.11 -0.56,0.143 -0.248,0.025 -0.546,0.042 -0.9,0.042 -0.378,0 -0.685,-0.017 -0.933,-0.042 -0.24,-0.033 -0.421,-0.08 -0.563,-0.143 -0.126,-0.058 -0.228,-0.13 -0.291,-0.21 -0.062,-0.08 -0.088,-0.186 -0.088,-0.303 l 0,-8.904 -10.337,0 0,8.904 c 0,0.117 -0.033,0.223 -0.096,0.303 -0.063,0.08 -0.16,0.151 -0.291,0.21 -0.138,0.063 -0.323,0.11 -0.563,0.143 -0.248,0.025 -0.556,0.042 -0.93,0.042 -0.358,0 -0.656,-0.017 -0.9,-0.042 -0.24,-0.033 -0.433,-0.08 -0.568,-0.143 -0.151,-0.058 -0.248,-0.13 -0.294,-0.21 -0.05,-0.08 -0.085,-0.186 -0.085,-0.303 l 0.001,-20.285 c 0,-0.122 0.032,-0.226 0.084,-0.306 0.047,-0.08 0.143,-0.156 0.294,-0.228 0.135,-0.067 0.328,-0.105 0.568,-0.13 0.245,-0.022 0.543,-0.038 0.9,-0.038 0.374,0 0.681,0.017 0.93,0.038 0.24,0.025 0.424,0.063 0.563,0.13 0.131,0.071 0.228,0.148 0.291,0.228 0.063,0.08 0.096,0.185 0.096,0.306 l 0,8.244 10.337,0 0,-8.244 c 0,-0.122 0.025,-0.226 0.088,-0.306 0.064,-0.08 0.164,-0.156 0.291,-0.228 0.143,-0.067 0.323,-0.105 0.563,-0.13 0.249,-0.022 0.556,-0.038 0.933,-0.038 0.354,0 0.652,0.017 0.9,0.038 0.236,0.025 0.421,0.063 0.56,0.13 0.138,0.071 0.231,0.148 0.295,0.228 0.06,0.08 0.088,0.185 0.088,0.306 l 0,20.285 0,0 z"
       id="path39"
       inkscape:connector-curvature="0" /><path
       style="clip-rule:evenodd;fill:#000000;fill-rule:evenodd;stroke:#ffffff;stroke-miterlimit:10"
       d="m 379.94,491.072 c 0,0.101 -0.033,0.203 -0.097,0.291 -0.058,0.088 -0.151,0.168 -0.29,0.218 -0.13,0.046 -0.324,0.093 -0.564,0.126 -0.235,0.025 -0.538,0.042 -0.9,0.042 -0.361,0 -0.66,-0.017 -0.9,-0.042 -0.243,-0.033 -0.437,-0.08 -0.589,-0.126 -0.147,-0.05 -0.256,-0.13 -0.315,-0.218 -0.055,-0.088 -0.084,-0.19 -0.084,-0.291 l 10e-4,-11.675 c 0,-0.589 0.012,-1.186 0.037,-1.795 0.03,-0.606 0.067,-1.208 0.113,-1.792 -0.349,0.601 -0.724,1.19 -1.135,1.77 -0.417,0.576 -0.837,1.157 -1.25,1.72 l -8.612,11.772 c -0.103,0.118 -0.194,0.223 -0.279,0.316 -0.083,0.088 -0.193,0.16 -0.319,0.218 -0.126,0.047 -0.29,0.085 -0.484,0.11 -0.197,0.017 -0.437,0.033 -0.722,0.033 -0.328,0 -0.597,-0.017 -0.804,-0.042 -0.219,-0.033 -0.388,-0.08 -0.509,-0.126 -0.13,-0.05 -0.223,-0.13 -0.273,-0.218 -0.051,-0.088 -0.081,-0.19 -0.081,-0.291 l 10e-4,-20.33 c 0,-0.11 0.029,-0.202 0.08,-0.29 0.051,-0.098 0.147,-0.164 0.293,-0.228 0.139,-0.058 0.332,-0.097 0.569,-0.122 0.249,-0.022 0.537,-0.038 0.887,-0.038 0.715,0 1.211,0.063 1.484,0.168 0.271,0.113 0.409,0.282 0.409,0.509 l 0,11.738 c 0,0.592 -0.013,1.173 -0.047,1.754 -0.03,0.581 -0.071,1.148 -0.118,1.724 0.351,-0.576 0.694,-1.13 1.052,-1.686 0.349,-0.547 0.736,-1.085 1.135,-1.607 l 8.723,-11.923 c 0.093,-0.122 0.185,-0.228 0.286,-0.316 0.093,-0.092 0.215,-0.16 0.361,-0.213 0.139,-0.055 0.308,-0.085 0.509,-0.11 0.194,-0.022 0.446,-0.038 0.757,-0.038 0.319,0 0.589,0.017 0.804,0.038 0.219,0.025 0.391,0.063 0.521,0.122 0.128,0.063 0.219,0.131 0.269,0.228 0.055,0.088 0.08,0.193 0.08,0.315 l 0,20.305 10e-4,0 z"
       id="path41"
       inkscape:connector-curvature="0" /><path
       style="clip-rule:evenodd;fill:#000000;fill-rule:evenodd;stroke:#ffffff;stroke-miterlimit:10"
       d="m 407.375,491.052 c 0,0.117 -0.033,0.223 -0.085,0.303 -0.062,0.08 -0.16,0.151 -0.303,0.21 -0.129,0.063 -0.323,0.11 -0.559,0.143 -0.239,0.025 -0.538,0.042 -0.9,0.042 -0.36,0 -0.66,-0.017 -0.917,-0.042 -0.248,-0.033 -0.438,-0.08 -0.584,-0.143 -0.138,-0.058 -0.236,-0.13 -0.291,-0.21 -0.054,-0.08 -0.08,-0.186 -0.08,-0.303 l 10e-4,-8.164 c -0.845,0.379 -1.729,0.677 -2.667,0.897 -0.938,0.215 -1.96,0.319 -3.053,0.319 -1.399,0 -2.562,-0.176 -3.495,-0.539 -0.932,-0.361 -1.674,-0.854 -2.229,-1.484 -0.563,-0.631 -0.955,-1.388 -1.186,-2.254 -0.238,-0.88 -0.353,-1.968 -0.353,-3.293 l 0,-5.767 c 0,-0.122 0.03,-0.226 0.084,-0.306 0.047,-0.08 0.151,-0.156 0.298,-0.228 0.156,-0.067 0.344,-0.105 0.581,-0.13 0.232,-0.022 0.53,-0.038 0.892,-0.038 0.371,0 0.677,0.017 0.925,0.038 0.236,0.025 0.421,0.063 0.556,0.13 0.143,0.071 0.24,0.148 0.311,0.228 0.059,0.08 0.1,0.185 0.1,0.306 l 0.001,5.183 c 0,1.218 0.084,2.123 0.268,2.724 0.177,0.597 0.437,1.078 0.782,1.431 0.346,0.353 0.77,0.605 1.279,0.744 0.501,0.151 1.093,0.215 1.771,0.215 0.885,0 1.754,-0.113 2.599,-0.336 0.855,-0.223 1.69,-0.547 2.536,-0.968 l 0.001,-8.992 c 0,-0.122 0.025,-0.226 0.079,-0.306 0.056,-0.08 0.151,-0.156 0.291,-0.228 0.148,-0.067 0.336,-0.105 0.584,-0.13 0.257,-0.022 0.556,-0.038 0.917,-0.038 0.362,0 0.66,0.017 0.9,0.038 0.236,0.025 0.429,0.063 0.559,0.13 0.144,0.071 0.24,0.148 0.303,0.228 0.051,0.08 0.085,0.185 0.085,0.306 l 0,20.284 -10e-4,0 z"
       id="path43"
       inkscape:connector-curvature="0" /><path
       style="clip-rule:evenodd;fill:#000000;fill-rule:evenodd;stroke:#ffffff;stroke-miterlimit:10"
       d="m 431.668,481.811 -3.18,0 c -1.023,0 -1.906,0.088 -2.663,0.257 -0.747,0.176 -1.366,0.429 -1.867,0.765 -0.496,0.341 -0.862,0.749 -1.093,1.216 -0.231,0.479 -0.346,1.013 -0.346,1.632 10e-4,1.055 0.329,1.892 0.998,2.519 0.669,0.619 1.611,0.933 2.809,0.933 0.976,0 1.875,-0.244 2.717,-0.749 0.83,-0.488 1.707,-1.25 2.624,-2.276 l 0.001,-4.297 0,0 z m 3.696,9.261 c 0,0.176 -0.058,0.316 -0.18,0.404 -0.118,0.088 -0.291,0.16 -0.497,0.206 -0.213,0.042 -0.526,0.067 -0.92,0.067 -0.396,0 -0.707,-0.025 -0.942,-0.067 -0.227,-0.046 -0.401,-0.118 -0.505,-0.206 -0.109,-0.088 -0.155,-0.227 -0.155,-0.404 l 0,-2.027 c -0.892,0.942 -1.876,1.682 -2.97,2.204 -1.08,0.526 -2.238,0.794 -3.457,0.794 -1.064,0 -2.035,-0.143 -2.897,-0.424 -0.857,-0.274 -1.599,-0.677 -2.204,-1.198 -0.609,-0.53 -1.085,-1.174 -1.426,-1.939 -0.328,-0.769 -0.501,-1.64 -0.501,-2.616 0.001,-1.148 0.231,-2.133 0.694,-2.978 0.472,-0.837 1.136,-1.534 2.006,-2.09 0.871,-0.564 1.939,-0.98 3.201,-1.253 1.262,-0.278 2.687,-0.421 4.264,-0.421 l 2.794,0 0,-1.577 c 0,-0.782 -0.09,-1.472 -0.249,-2.073 -0.172,-0.597 -0.433,-1.102 -0.799,-1.494 -0.37,-0.399 -0.85,-0.698 -1.43,-0.909 -0.589,-0.197 -1.313,-0.298 -2.166,-0.298 -0.925,0 -1.737,0.105 -2.469,0.324 -0.732,0.218 -1.367,0.458 -1.913,0.722 -0.555,0.261 -1.01,0.501 -1.379,0.72 -0.37,0.218 -0.636,0.328 -0.82,0.328 -0.117,0 -0.223,-0.033 -0.319,-0.088 -0.088,-0.063 -0.168,-0.151 -0.236,-0.274 -0.062,-0.117 -0.118,-0.273 -0.143,-0.466 -0.032,-0.186 -0.05,-0.387 -0.05,-0.61 10e-4,-0.378 0.033,-0.677 0.083,-0.895 0.056,-0.215 0.178,-0.424 0.388,-0.622 0.198,-0.19 0.543,-0.426 1.043,-0.685 0.492,-0.261 1.064,-0.501 1.712,-0.719 0.644,-0.219 1.354,-0.396 2.12,-0.539 0.765,-0.151 1.543,-0.218 2.325,-0.218 1.456,-10e-4 2.692,0.168 3.715,0.499 1.026,0.328 1.845,0.812 2.476,1.456 0.632,0.639 1.098,1.43 1.379,2.376 0.283,0.947 0.429,2.045 0.429,3.306 l 0,13.684 -0.002,0 z"
       id="path45"
       inkscape:connector-curvature="0" /><path
       style="clip-rule:evenodd;fill:#000000;fill-rule:evenodd;stroke:#ffffff;stroke-miterlimit:10"
       d="m 485.401,491.203 c 0,0.092 -0.03,0.168 -0.084,0.24 -0.045,0.071 -0.148,0.122 -0.291,0.168 -0.138,0.05 -0.331,0.08 -0.563,0.105 -0.228,0.017 -0.534,0.033 -0.897,0.033 -0.406,0 -0.757,-0.017 -1.022,-0.042 -0.256,-0.033 -0.476,-0.08 -0.635,-0.126 -0.167,-0.05 -0.29,-0.122 -0.361,-0.21 -0.08,-0.08 -0.131,-0.176 -0.16,-0.273 l -2.165,-5.257 c -0.271,-0.674 -0.565,-1.261 -0.868,-1.742 -0.306,-0.492 -0.661,-0.887 -1.072,-1.186 -0.404,-0.303 -0.862,-0.513 -1.376,-0.656 -0.508,-0.13 -1.093,-0.198 -1.754,-0.198 l -1.577,0 0,9.126 c 0,0.072 -0.038,0.153 -0.113,0.228 -0.08,0.067 -0.185,0.126 -0.341,0.176 -0.143,0.047 -0.344,0.085 -0.584,0.118 -0.24,0.025 -0.522,0.042 -0.837,0.042 -0.315,0 -0.594,-0.017 -0.829,-0.042 -0.24,-0.033 -0.442,-0.071 -0.589,-0.118 -0.152,-0.05 -0.261,-0.109 -0.328,-0.176 -0.063,-0.075 -0.102,-0.156 -0.102,-0.227 l 0,-20.601 c 0,-0.075 0.038,-0.142 0.102,-0.213 0.068,-0.068 0.176,-0.123 0.328,-0.169 0.148,-0.045 0.349,-0.075 0.589,-0.1 0.236,-0.022 0.513,-0.038 0.829,-0.038 0.316,0 0.597,0.017 0.837,0.038 0.24,0.025 0.441,0.055 0.584,0.1 0.156,0.046 0.261,0.101 0.341,0.169 0.076,0.07 0.113,0.138 0.113,0.215 l 0,8.495 1.577,0 c 0.568,0 1.093,-0.063 1.561,-0.194 0.48,-0.126 0.909,-0.336 1.303,-0.631 0.392,-0.29 0.74,-0.669 1.043,-1.135 0.308,-0.467 0.594,-1.031 0.85,-1.699 l 1.888,-4.657 c 0.033,-0.122 0.088,-0.226 0.156,-0.315 0.076,-0.098 0.188,-0.164 0.336,-0.228 0.16,-0.058 0.353,-0.097 0.601,-0.122 0.248,-0.022 0.581,-0.038 0.985,-0.038 0.353,0 0.656,0.017 0.882,0.038 0.241,0.025 0.421,0.055 0.547,0.1 0.126,0.046 0.21,0.101 0.256,0.169 0.043,0.07 0.068,0.138 0.068,0.215 0,0.13 -0.017,0.277 -0.051,0.425 -0.042,0.155 -0.1,0.323 -0.168,0.526 l -1.938,4.458 c -0.303,0.749 -0.635,1.376 -0.988,1.893 -0.353,0.508 -0.707,0.929 -1.073,1.27 -0.356,0.336 -0.723,0.601 -1.093,0.795 -0.378,0.185 -0.74,0.328 -1.085,0.437 l 0,0.045 c 0.522,0.176 1.005,0.401 1.456,0.652 0.443,0.256 0.854,0.572 1.237,0.947 0.383,0.379 0.736,0.824 1.063,1.338 0.338,0.526 0.644,1.118 0.925,1.795 l 2.229,5.139 c 0.068,0.105 0.113,0.198 0.143,0.291 0.03,0.092 0.05,0.176 0.067,0.26 0.018,0.084 0.026,0.148 0.035,0.198 0.005,0.058 0.012,0.106 0.012,0.148 l 0.001,0 0,10e-4 z"
       id="path47"
       inkscape:connector-curvature="0" /><path
       style="clip-rule:evenodd;fill:#000000;fill-rule:evenodd;stroke:#ffffff;stroke-miterlimit:10"
       d="m 510.361,480.928 c 0,-1.093 -0.11,-2.132 -0.311,-3.108 -0.198,-0.98 -0.539,-1.834 -0.998,-2.574 -0.47,-0.731 -1.102,-1.311 -1.892,-1.745 -0.804,-0.429 -1.792,-0.644 -2.978,-0.644 -1.1,0 -2.04,0.203 -2.83,0.594 -0.786,0.386 -1.438,0.938 -1.947,1.653 -0.513,0.715 -0.892,1.56 -1.136,2.54 -0.248,0.975 -0.37,2.036 -0.37,3.201 0,1.106 0.097,2.153 0.298,3.128 0.203,0.977 0.539,1.83 1.015,2.554 0.466,0.732 1.11,1.312 1.9,1.737 0.805,0.433 1.792,0.644 2.978,0.644 1.085,-0.001 2.023,-0.194 2.813,-0.585 0.804,-0.396 1.456,-0.942 1.964,-1.649 0.514,-0.702 0.892,-1.548 1.131,-2.519 0.237,-0.981 0.363,-2.054 0.363,-3.227 l 0,0 0,0 z m 3.912,-0.248 c 0,1.652 -0.215,3.176 -0.652,4.559 -0.433,1.392 -1.086,2.599 -1.948,3.605 -0.857,1.005 -1.943,1.792 -3.243,2.351 -1.298,0.563 -2.805,0.849 -4.516,0.849 -1.669,0 -3.125,-0.256 -4.366,-0.749 -1.236,-0.492 -2.276,-1.211 -3.096,-2.161 -0.824,-0.942 -1.442,-2.098 -1.85,-3.453 -0.403,-1.342 -0.601,-2.885 -0.601,-4.593 0,-1.653 0.213,-3.175 0.634,-4.563 0.434,-1.392 1.077,-2.591 1.94,-3.595 0.862,-1.01 1.947,-1.788 3.238,-2.343 1.291,-0.56 2.8,-0.837 4.526,-0.837 1.667,-10e-4 3.121,0.243 4.361,0.747 1.238,0.492 2.276,1.216 3.095,2.158 0.838,0.951 1.452,2.103 1.868,3.449 0.412,1.354 0.61,2.877 0.61,4.576 l 0,0 0,0 z"
       id="path49"
       inkscape:connector-curvature="0" /><path
       style="clip-rule:evenodd;fill:#000000;fill-rule:evenodd;stroke:#ffffff;stroke-miterlimit:10"
       d="m 551.162,490.841 c 0.012,0.333 -0.088,0.572 -0.316,0.698 -0.222,0.143 -0.69,0.21 -1.371,0.21 -0.378,0 -0.685,-0.009 -0.922,-0.025 -0.248,-0.008 -0.432,-0.042 -0.571,-0.088 -0.131,-0.047 -0.223,-0.105 -0.278,-0.193 -0.054,-0.085 -0.093,-0.193 -0.11,-0.324 l -1.458,-11.84 c -0.047,-0.411 -0.094,-0.87 -0.141,-1.345 -0.037,-0.484 -0.083,-0.968 -0.13,-1.469 -0.045,-0.496 -0.089,-0.992 -0.122,-1.484 -0.038,-0.501 -0.08,-0.964 -0.126,-1.401 l -0.025,-0.517 c -0.135,0.437 -0.274,0.896 -0.429,1.379 -0.143,0.476 -0.303,0.971 -0.479,1.464 -0.173,0.488 -0.341,0.988 -0.496,1.481 -0.163,0.501 -0.308,0.963 -0.438,1.401 l -4.264,12.015 c -0.058,0.181 -0.131,0.324 -0.211,0.447 -0.087,0.122 -0.193,0.218 -0.344,0.29 -0.143,0.08 -0.32,0.135 -0.534,0.168 -0.223,0.025 -0.488,0.042 -0.8,0.042 -0.315,0 -0.579,-0.017 -0.79,-0.042 -0.209,-0.033 -0.386,-0.088 -0.534,-0.151 -0.137,-0.068 -0.252,-0.16 -0.345,-0.281 -0.091,-0.123 -0.168,-0.27 -0.223,-0.454 l -4.112,-12.033 c -0.143,-0.421 -0.296,-0.872 -0.46,-1.354 -0.15,-0.476 -0.315,-0.968 -0.466,-1.477 -0.16,-0.499 -0.319,-1 -0.467,-1.493 -0.15,-0.496 -0.273,-0.963 -0.383,-1.401 l -0.02,0.517 c -0.047,0.437 -0.093,0.9 -0.143,1.401 -0.033,0.492 -0.089,0.988 -0.143,1.484 -0.042,0.501 -0.098,0.985 -0.151,1.469 -0.058,0.475 -0.093,0.933 -0.126,1.345 l -1.396,11.633 c -0.017,0.185 -0.051,0.328 -0.106,0.442 -0.049,0.113 -0.151,0.193 -0.306,0.251 -0.143,0.047 -0.345,0.085 -0.585,0.11 -0.234,0.017 -0.551,0.033 -0.942,0.033 -0.378,0 -0.669,-0.017 -0.895,-0.042 -0.213,-0.033 -0.374,-0.088 -0.492,-0.168 -0.117,-0.071 -0.185,-0.168 -0.215,-0.273 -0.029,-0.114 -0.03,-0.253 0,-0.425 l 2.229,-19.199 c 0.081,-0.476 0.248,-0.845 0.509,-1.093 0.261,-0.245 0.664,-0.371 1.186,-0.371 l 1.774,0 c 0.443,0 0.812,0.035 1.119,0.101 0.303,0.067 0.576,0.185 0.791,0.349 0.214,0.168 0.399,0.391 0.551,0.669 0.152,0.273 0.294,0.622 0.424,1.047 l 3.003,8.63 c 0.168,0.531 0.336,1.056 0.514,1.59 0.185,0.534 0.357,1.055 0.508,1.581 0.161,0.514 0.307,1.022 0.454,1.519 0.141,0.491 0.278,0.967 0.392,1.416 l 0.047,0 c 0.138,-0.458 0.277,-0.954 0.415,-1.479 0.149,-0.514 0.299,-1.043 0.464,-1.574 0.168,-0.534 0.336,-1.064 0.505,-1.586 0.176,-0.534 0.349,-1.03 0.509,-1.514 l 2.999,-8.584 c 0.115,-0.383 0.256,-0.702 0.396,-0.98 0.148,-0.278 0.319,-0.504 0.53,-0.677 0.211,-0.177 0.462,-0.298 0.753,-0.383 0.294,-0.083 0.656,-0.126 1.068,-0.126 l 1.763,0 c 0.538,0 0.945,0.118 1.222,0.336 0.287,0.228 0.446,0.589 0.489,1.081 l 2.251,19.247 0,0 z"
       id="path51"
       inkscape:connector-curvature="0" /><path
       style="clip-rule:evenodd;fill:#000000;fill-rule:evenodd;stroke:#ffffff;stroke-miterlimit:10"
       d="m 579.711,491.052 c 0,0.117 -0.03,0.223 -0.093,0.303 -0.058,0.08 -0.156,0.151 -0.291,0.21 -0.138,0.063 -0.323,0.11 -0.564,0.143 -0.234,0.025 -0.546,0.042 -0.899,0.042 -0.378,0 -0.687,-0.017 -0.93,-0.042 -0.24,-0.033 -0.434,-0.08 -0.568,-0.143 -0.147,-0.058 -0.249,-0.13 -0.307,-0.21 -0.063,-0.08 -0.097,-0.186 -0.097,-0.303 l 10e-4,-17.719 -9.661,0 0,17.719 c 0,0.117 -0.035,0.223 -0.093,0.303 -0.063,0.08 -0.16,0.151 -0.307,0.21 -0.143,0.063 -0.333,0.11 -0.569,0.143 -0.248,0.025 -0.546,0.042 -0.908,0.042 -0.353,0 -0.656,-0.017 -0.9,-0.042 -0.235,-0.033 -0.433,-0.08 -0.572,-0.143 -0.145,-0.058 -0.243,-0.13 -0.29,-0.21 -0.054,-0.08 -0.083,-0.186 -0.083,-0.303 l 0,-19.541 c 0,-0.453 0.1,-0.786 0.306,-1.004 0.203,-0.219 0.484,-0.329 0.845,-0.329 l 14.846,0 c 0.363,0 0.639,0.11 0.837,0.329 0.194,0.218 0.294,0.551 0.294,1.005 l 0.003,19.54 0,0 z"
       id="path53"
       inkscape:connector-curvature="0" /><path
       style="clip-rule:evenodd;fill:#000000;fill-rule:evenodd;stroke:#ffffff;stroke-miterlimit:10"
       d="m 603.991,481.811 -3.176,0 c -1.022,0 -1.91,0.088 -2.659,0.257 -0.749,0.176 -1.376,0.429 -1.875,0.765 -0.488,0.341 -0.859,0.749 -1.09,1.216 -0.231,0.479 -0.349,1.013 -0.349,1.632 10e-4,1.055 0.336,1.892 1.005,2.519 0.67,0.619 1.607,0.933 2.805,0.933 0.976,0 1.877,-0.244 2.713,-0.749 0.832,-0.488 1.707,-1.25 2.624,-2.276 l 0.002,-4.297 0,0 z m 3.7,9.261 c 0,0.176 -0.063,0.316 -0.186,0.404 -0.114,0.088 -0.281,0.16 -0.492,0.206 -0.214,0.042 -0.521,0.067 -0.925,0.067 -0.391,0 -0.706,-0.025 -0.933,-0.067 -0.231,-0.046 -0.4,-0.118 -0.509,-0.206 -0.109,-0.088 -0.155,-0.227 -0.155,-0.404 l 0,-2.027 c -0.892,0.942 -1.876,1.682 -2.97,2.204 -1.08,0.526 -2.238,0.794 -3.453,0.794 -1.067,0 -2.035,-0.143 -2.898,-0.424 -0.862,-0.274 -1.602,-0.677 -2.212,-1.198 -0.605,-0.53 -1.085,-1.174 -1.422,-1.939 -0.332,-0.769 -0.501,-1.64 -0.501,-2.616 10e-4,-1.148 0.232,-2.133 0.695,-2.978 0.471,-0.837 1.14,-1.534 2.005,-2.09 0.872,-0.564 1.94,-0.98 3.201,-1.253 1.263,-0.278 2.684,-0.421 4.261,-0.421 l 2.793,0 0,-1.577 c 0,-0.782 -0.081,-1.472 -0.245,-2.073 -0.167,-0.597 -0.433,-1.102 -0.802,-1.494 -0.366,-0.399 -0.846,-0.698 -1.431,-0.909 -0.579,-0.197 -1.303,-0.298 -2.158,-0.298 -0.924,0 -1.74,0.105 -2.468,0.324 -0.732,0.218 -1.371,0.458 -1.918,0.722 -0.554,0.261 -1.01,0.501 -1.376,0.72 -0.368,0.218 -0.643,0.328 -0.829,0.328 -0.113,0 -0.218,-0.033 -0.311,-0.088 -0.092,-0.063 -0.168,-0.151 -0.24,-0.274 -0.057,-0.117 -0.113,-0.273 -0.147,-0.466 -0.03,-0.186 -0.042,-0.387 -0.042,-0.61 0,-0.378 0.025,-0.677 0.08,-0.895 0.055,-0.215 0.18,-0.424 0.386,-0.622 0.203,-0.19 0.547,-0.426 1.048,-0.685 0.491,-0.261 1.06,-0.501 1.707,-0.719 0.644,-0.219 1.349,-0.396 2.123,-0.539 0.762,-0.151 1.536,-0.218 2.323,-0.218 1.451,-10e-4 2.691,0.168 3.717,0.499 1.023,0.328 1.842,0.812 2.474,1.456 0.631,0.639 1.093,1.43 1.379,2.376 0.286,0.947 0.428,2.045 0.428,3.306 l 0.003,13.684 0,0 z"
       id="path55"
       inkscape:connector-curvature="0" /><path
       style="clip-rule:evenodd;fill:#000000;fill-rule:evenodd;stroke:#ffffff;stroke-miterlimit:10"
       d="m 638.107,491.052 c 0,0.117 -0.035,0.223 -0.098,0.303 -0.062,0.08 -0.151,0.151 -0.29,0.21 -0.138,0.063 -0.319,0.11 -0.564,0.143 -0.243,0.025 -0.547,0.042 -0.9,0.042 -0.378,0 -0.681,-0.017 -0.933,-0.042 -0.235,-0.033 -0.416,-0.08 -0.556,-0.143 -0.133,-0.058 -0.231,-0.13 -0.294,-0.21 -0.057,-0.08 -0.092,-0.186 -0.092,-0.303 l 0,-8.904 -10.337,0 0,8.904 c 0,0.117 -0.035,0.223 -0.093,0.303 -0.063,0.08 -0.164,0.151 -0.295,0.21 -0.138,0.063 -0.319,0.11 -0.564,0.143 -0.238,0.025 -0.551,0.042 -0.925,0.042 -0.353,0 -0.656,-0.017 -0.9,-0.042 -0.238,-0.033 -0.433,-0.08 -0.572,-0.143 -0.146,-0.058 -0.248,-0.13 -0.29,-0.21 -0.055,-0.08 -0.088,-0.186 -0.088,-0.303 l 10e-4,-20.285 c 0,-0.122 0.032,-0.226 0.087,-0.306 0.043,-0.08 0.143,-0.156 0.29,-0.228 0.14,-0.067 0.333,-0.105 0.572,-0.13 0.244,-0.022 0.547,-0.038 0.9,-0.038 0.376,0 0.685,0.017 0.925,0.038 0.246,0.025 0.424,0.063 0.564,0.13 0.131,0.071 0.231,0.148 0.295,0.228 0.058,0.08 0.092,0.185 0.092,0.306 l 10e-4,8.244 10.337,0 0,-8.244 c 0,-0.122 0.033,-0.226 0.092,-0.306 0.064,-0.08 0.16,-0.156 0.294,-0.228 0.14,-0.067 0.32,-0.105 0.556,-0.13 0.253,-0.022 0.555,-0.038 0.933,-0.038 0.354,0 0.656,0.017 0.9,0.038 0.244,0.025 0.424,0.063 0.564,0.13 0.14,0.071 0.227,0.148 0.29,0.228 0.063,0.08 0.097,0.185 0.097,0.306 l 10e-4,20.285 0,0 z"
       id="path57"
       inkscape:connector-curvature="0" /><path
       style="clip-rule:evenodd;fill:#000000;fill-rule:evenodd;stroke:#ffffff;stroke-miterlimit:10"
       d="m 654.947,463.912 c 0,0.875 -0.165,1.468 -0.492,1.784 -0.333,0.315 -0.938,0.466 -1.822,0.466 -0.879,0 -1.471,-0.151 -1.796,-0.458 -0.319,-0.308 -0.479,-0.883 -0.479,-1.745 0,-0.871 0.16,-1.464 0.488,-1.78 0.333,-0.315 0.938,-0.474 1.822,-0.474 0.879,0 1.471,0.151 1.795,0.463 0.319,0.301 0.484,0.89 0.484,1.744 l 0,0 0,0 z m -0.421,27.14 c 0,0.117 -0.033,0.223 -0.097,0.303 -0.058,0.08 -0.16,0.151 -0.291,0.21 -0.138,0.063 -0.323,0.11 -0.563,0.143 -0.243,0.025 -0.556,0.042 -0.926,0.042 -0.353,0 -0.656,-0.017 -0.9,-0.042 -0.239,-0.033 -0.437,-0.08 -0.571,-0.143 -0.147,-0.058 -0.248,-0.13 -0.291,-0.21 -0.054,-0.08 -0.088,-0.186 -0.088,-0.303 l 0,-20.285 c 0,-0.11 0.033,-0.201 0.088,-0.294 0.043,-0.092 0.143,-0.168 0.291,-0.223 0.135,-0.063 0.331,-0.105 0.571,-0.138 0.244,-0.03 0.547,-0.046 0.9,-0.046 0.372,0 0.682,0.017 0.926,0.046 0.24,0.033 0.424,0.075 0.563,0.138 0.131,0.055 0.231,0.131 0.291,0.223 0.063,0.093 0.097,0.186 0.097,0.294 l 0,20.285 0,0 z"
       id="path59"
       inkscape:connector-curvature="0" /><path
       style="clip-rule:evenodd;fill:#000000;fill-rule:evenodd;stroke:#ffffff;stroke-miterlimit:10"
       d="m 678.466,472.928 c -0.539,-0.071 -1.094,-0.125 -1.667,-0.147 -0.572,-0.025 -1.093,-0.03 -1.577,-0.03 -1.022,0 -1.872,0.08 -2.557,0.256 -0.681,0.173 -1.233,0.421 -1.644,0.74 -0.416,0.324 -0.707,0.707 -0.875,1.14 -0.177,0.437 -0.265,0.913 -0.265,1.447 0,0.534 0.101,1.022 0.303,1.451 0.206,0.424 0.518,0.787 0.929,1.081 0.409,0.29 0.938,0.521 1.585,0.677 0.644,0.159 1.544,0.24 2.709,0.24 l 3.059,0 0,-6.855 0,0 z m 3.717,18.124 c 0,0.117 -0.026,0.223 -0.081,0.311 -0.049,0.088 -0.143,0.168 -0.273,0.218 -0.138,0.046 -0.323,0.093 -0.572,0.126 -0.234,0.025 -0.554,0.042 -0.942,0.042 -0.361,0 -0.664,-0.017 -0.9,-0.042 -0.238,-0.033 -0.432,-0.08 -0.581,-0.126 -0.133,-0.05 -0.24,-0.13 -0.29,-0.218 -0.047,-0.088 -0.08,-0.194 -0.08,-0.311 l 10e-4,-8.547 -2.136,0 c -0.93,0 -1.663,0.076 -2.18,0.231 -0.512,0.143 -0.984,0.396 -1.396,0.749 -0.411,0.358 -0.786,0.804 -1.118,1.359 -0.328,0.546 -0.644,1.215 -0.943,2.015 l -1.647,3.961 c -0.072,0.197 -0.156,0.353 -0.248,0.475 -0.085,0.126 -0.219,0.219 -0.391,0.286 -0.168,0.063 -0.392,0.11 -0.657,0.135 -0.256,0.017 -0.589,0.033 -0.975,0.033 -0.29,0 -0.539,-0.009 -0.762,-0.025 -0.214,-0.008 -0.395,-0.042 -0.546,-0.08 -0.155,-0.033 -0.27,-0.097 -0.337,-0.177 -0.075,-0.088 -0.117,-0.185 -0.117,-0.306 0,-0.106 0.042,-0.274 0.125,-0.509 0.085,-0.232 0.253,-0.64 0.505,-1.224 l 1.624,-3.81 c 0.424,-0.958 0.942,-1.788 1.551,-2.49 0.624,-0.702 1.329,-1.22 2.125,-1.547 -1.454,-0.27 -2.62,-0.854 -3.482,-1.746 -0.862,-0.895 -1.299,-2.078 -1.299,-3.546 0,-0.98 0.205,-1.863 0.614,-2.645 0.404,-0.794 1,-1.463 1.787,-2.01 0.792,-0.547 1.762,-0.968 2.907,-1.261 1.156,-0.291 2.468,-0.437 3.962,-0.437 0.358,0 0.779,0.008 1.245,0.025 0.479,0.017 0.963,0.025 1.472,0.058 0.501,0.03 0.988,0.071 1.459,0.11 0.48,0.03 0.887,0.067 1.233,0.097 0.446,0.051 0.782,0.21 1.017,0.492 0.224,0.286 0.328,0.644 0.328,1.063 l -0.002,19.271 0,0 z"
       id="path61"
       inkscape:connector-curvature="0" /></g></svg>